<?xml version="1.0" encoding="UTF-8" standalone="no"?>
<!DOCTYPE svg PUBLIC "-//W3C//DTD SVG 1.1//EN" "http://www.w3.org/Graphics/SVG/1.1/DTD/svg11.dtd">
<svg width="100%" height="100%" viewBox="0 0 4634 3475" version="1.1" xmlns="http://www.w3.org/2000/svg" xmlns:xlink="http://www.w3.org/1999/xlink" xml:space="preserve" xmlns:serif="http://www.serif.com/" style="fill-rule:evenodd;clip-rule:evenodd;stroke-linecap:round;stroke-linejoin:round;stroke-miterlimit:1.5;">
    <g transform="matrix(2.08333,0,0,2.08333,0,0)">
        <g id="Layer1" transform="matrix(1,0,0,1,0.5,-4.5)">
            <path d="M312,1540.5L351,1579.5L390,1579.5L429,1540.5L487.5,1540.5L507,1560L507,1579.5L546,1579.5L585,1540.5L643.5,1540.5L663,1560L663,1579.5L702,1579.5L721.5,1560L741,1521L799.5,1501.5L819,1521L819,1560L838.5,1560L858,1540.5L877.5,1482L897,1443L916.5,1404L975,1228.5L1112,1228.5L1131,1209L1209,1092L1228.5,1014L1228.5,877.5L1209,858L1131,858L1053,936L877.5,975L799.5,994.5L741,1053L741,1345.5L702,1384.5L682.5,1392.3L604.5,1423.5L312,1423.5L312,1540.5Z" style="fill:rgb(36,93,144);stroke:rgb(36,93,144);stroke-width:1px;"/>
            <path d="M1326,1209L1306.5,1189.5L1287,1189.5L1248,1209L1209,1248L1209,1404L1228.5,1404L1267.5,1384.5L1326,1326L1326,1209Z" style="fill:rgb(36,93,144);stroke:rgb(36,93,144);stroke-width:1px;"/>
        </g>
        <g id="Layer4" transform="matrix(1,0,0,1,0.5,-4.5)">
            <path d="M331.5,1072.5L331.5,1053L390,994.5L429,994.5L468,1033.5L507,1033.5L663,877.5L682.5,838.5L702,819L702,409.5L780,331.5L858,292.5L858,136.5L936,58.5L1287,58.5L1404,175.5L1521,409.5L1716,409.5L1794,448.5L1833,487.5L1852.5,526.5L1872,604.5L1872,1345.5L1794,1501.5L1716,1579.5L1638,1618.5L1404,1618.5L1365,1579.5L1365,1501.5L1462.5,1404L1521,1287L1579.5,1189.5L1579.5,897L1521,838.5L1404,838.5L1384.5,819L1384.5,663L1306.5,585L1189.5,585L1112,663L1111.5,780L1150.5,819L1150.5,838.5L1112,858L1053,916.5L897,955.5L780,994.5L741,1033.5L663,1072.5L585,1111.5L487.5,1150.5L331.5,1150.5L331.5,1072.5Z" style="fill:rgb(88,111,100);stroke:rgb(88,111,100);stroke-width:1px;"/>
            <path d="M1092,1618.5L1092,1501.5L1131,1462.5L1287,1384.5L1345.5,1326L1345.5,1189.5L1345.5,1170L1306.5,1131L1287,1131L1267.5,1150.5L1189.5,1150.5L1209,1111.5L1228.5,1092L1248,1014L1248,877.5L1267.5,838.5L1326,780L1326,702L1267.5,643.5L1228.5,643.5L1170,702L1170,741L1189.5,780L1228.5,799.5L1248,780L1248,760.5L1209,721.5L1209,702L1228.5,682.5L1287,682.5L1306.5,702L1306.5,780L1248,838.5L1189.5,838.5L1131,780L1131,663L1189.5,604.5L1306.5,604.5L1365,663L1365,838.5L1326,877.5L1326,1072.5L1384.5,1131L1462.5,1131L1521,1072.5L1521,955.5L1482,916.5L1443,916.5L1404,955.5L1404,1014L1423.5,1053L1443,1033.5L1443,955.5L1462.5,936L1482,936L1501.5,955.5L1501.5,1053L1462.5,1092L1384.5,1092L1345.5,1053L1345.5,916.5L1404,858L1521,858L1560,897L1560,1189.5L1462.5,1384.5L1345.5,1501.5L1326,1579.5L1287,1618.5L1092,1618.5Z" style="fill:rgb(88,111,100);stroke:rgb(88,111,100);stroke-width:1px;"/>
        </g>
        <g id="Layer2" transform="matrix(1,0,0,1,0.5,-4.5)">
            <path d="M331.5,1501.5L312,1482L312,1365L331.5,1365L429,1462.5L429,1482L409.5,1501.5L331.5,1501.5Z" style="fill:rgb(247,254,139);stroke:rgb(247,254,139);stroke-width:1px;"/>
            <path d="M487.5,1501.5L468,1482L468,1365L487.5,1365L585,1462.5L585,1482L565.5,1501.5L487.5,1501.5Z" style="fill:rgb(247,254,139);stroke:rgb(247,254,139);stroke-width:1px;"/>
            <path d="M624,1462.5L585,1423.5L585,1326L604.5,1326L663,1384.5L682.5,1384.5L702,1404L702,1443L682.5,1462.5L624,1462.5Z" style="fill:rgb(247,254,139);stroke:rgb(247,254,139);stroke-width:1px;"/>
            <path d="M429,1540.5L370.5,1599L370.5,1618.5L468,1618.5L507,1579.5L507,1560L487.5,1540.5L429,1540.5Z" style="fill:rgb(247,254,139);stroke:rgb(247,254,139);stroke-width:1px;"/>
            <path d="M663,1560L643.5,1540.5L585,1540.5L526.5,1599L526.5,1618.5L624,1618.5L663,1579.5L663,1560Z" style="fill:rgb(247,254,139);stroke:rgb(247,254,139);stroke-width:1px;"/>
            <path d="M819,1521L799.5,1501.5L760.5,1501.5L741,1521L721.5,1560L682.5,1599L682.5,1618.5L780,1618.5L819,1579.5L819,1521Z" style="fill:rgb(247,254,139);stroke:rgb(247,254,139);stroke-width:1px;"/>
            <path d="M838.5,1423.5L819,1443L819,1462.5L877.5,1521L897,1521L897,1443L877.5,1423.5L838.5,1423.5Z" style="fill:rgb(247,254,139);stroke:rgb(247,254,139);stroke-width:1px;"/>
            <path d="M819,1326L799.5,1345.5L682.5,1345.5L682.5,1326L799.5,1209L819,1209L819,1326Z" style="fill:rgb(247,254,139);stroke:rgb(247,254,139);stroke-width:1px;"/>
            <path d="M331.5,1072.5L312,1092L312,1209L331.5,1209L351,1189.5L351,1072.5L331.5,1072.5Z" style="fill:rgb(247,254,139);stroke:rgb(247,254,139);stroke-width:1px;"/>
            <path d="M409.5,1111.5L390,1131L390,1248L409.5,1248L468,1189.5L468,1131L448.5,1111.5L409.5,1111.5Z" style="fill:rgb(247,254,139);stroke:rgb(247,254,139);stroke-width:1px;"/>
            <path d="M546,1072.5L487.5,1131L487.5,1150.5L604.5,1150.5L624,1131L624,1092L604.5,1072.5L546,1072.5Z" style="fill:rgb(247,254,139);stroke:rgb(247,254,139);stroke-width:1px;"/>
        </g>
        <g id="Layer3" transform="matrix(1,0,0,1,0.5,-4.5)">
            <path d="M741,780L741,741L760.5,721.5L799.5,721.5L819,741L819,780L799.5,799.5L760.5,799.5L741,780Z" style="fill:rgb(164,163,96);stroke:rgb(164,163,96);stroke-width:1px;"/>
            <path d="M760.5,643.5L741,624L741,585L760.5,565.5L799.5,565.5L819,585L819,624L799.5,643.5L760.5,643.5Z" style="fill:rgb(164,163,96);stroke:rgb(164,163,96);stroke-width:1px;"/>
            <path d="M760.5,487.5L799.5,487.5L819,468L819,429L799.5,409.5L760.5,409.5L741,429L741,461.465L760.5,487.5Z" style="fill:rgb(164,163,96);stroke:rgb(164,163,96);stroke-width:1px;"/>
            <path d="M897,351L897,312L916.5,292.5L955.5,292.5L975,312L975,351L955.5,370.5L916.5,370.5L897,351Z" style="fill:rgb(164,163,96);stroke:rgb(164,163,96);stroke-width:1px;"/>
            <path d="M955.5,214.5L936,195L936,156L955.5,136.5L994.5,136.5L1014,156L1014,195L994.5,214.5L955.5,214.5Z" style="fill:rgb(164,163,96);stroke:rgb(164,163,96);stroke-width:1px;"/>
            <path d="M1092,156L1092,117L1112,97.5L1150.5,97.5L1170,117L1170,156L1150.5,175.5L1111.5,175.5L1092,156Z" style="fill:rgb(164,163,96);stroke:rgb(164,163,96);stroke-width:1px;"/>
            <path d="M1287,273L1287,234L1306.5,214.5L1345.5,214.5L1365,234L1365,273L1345.5,292.5L1306.5,292.5L1287,273Z" style="fill:rgb(164,163,96);stroke:rgb(164,163,96);stroke-width:1px;"/>
            <path d="M1365,390L1365,351L1384.5,331.5L1423.5,331.5L1443,351L1443,390L1423.5,409.5L1384.5,409.5L1365,390Z" style="fill:rgb(164,163,96);stroke:rgb(164,163,96);stroke-width:1px;"/>
            <path d="M1443,507L1443,468L1462.5,448.5L1501.5,448.5L1521,468L1521,507L1501.5,526.5L1462.5,526.5L1443,507Z" style="fill:rgb(164,163,96);stroke:rgb(164,163,96);stroke-width:1px;"/>
            <path d="M1599,507L1599,468L1618.5,448.5L1657.5,448.5L1677,468L1677,507L1657.5,526.5L1618.5,526.5L1599,507Z" style="fill:rgb(164,163,96);stroke:rgb(164,163,96);stroke-width:1px;"/>
            <path d="M1716,565.5L1716,546L1735.5,526.5L1774.5,526.5L1794,546L1794,565.5L1716,565.5Z" style="fill:rgb(164,163,96);stroke:rgb(164,163,96);stroke-width:1px;"/>
            <path d="M1755,741L1755,702L1774.5,682.5L1813.5,682.5L1833,702L1833,741L1813.5,760.5L1774.5,760.5L1755,741Z" style="fill:rgb(164,163,96);stroke:rgb(164,163,96);stroke-width:1px;"/>
            <path d="M1755,936L1755,897L1774.5,877.5L1813.5,877.5L1833,897L1833,936L1813.5,955.5L1774.5,955.5L1755,936Z" style="fill:rgb(164,163,96);stroke:rgb(164,163,96);stroke-width:1px;"/>
            <path d="M1755,1092L1755,1053L1774.5,1033.5L1813.5,1033.5L1833,1053L1833,1092L1813.5,1111.5L1774.5,1111.5L1755,1092Z" style="fill:rgb(164,163,96);stroke:rgb(164,163,96);stroke-width:1px;"/>
            <path d="M1755,1248L1755,1209L1774.5,1189.5L1813.5,1189.5L1833,1209L1833,1248L1813.5,1267.5L1774.5,1267.5L1755,1248Z" style="fill:rgb(164,163,96);stroke:rgb(164,163,96);stroke-width:1px;"/>
            <path d="M1716,1404L1716,1365L1735.5,1345.5L1774.5,1345.5L1794,1365L1794,1404L1774.5,1423.5L1735.5,1423.5L1716,1404Z" style="fill:rgb(164,163,96);stroke:rgb(164,163,96);stroke-width:1px;"/>
            <path d="M1599,1521L1599,1482L1618.5,1462.5L1657.5,1462.5L1677,1482L1677,1521L1657.5,1540.5L1618.5,1540.5L1599,1521Z" style="fill:rgb(164,163,96);stroke:rgb(164,163,96);stroke-width:1px;"/>
            <path d="M1443,1599L1443,1560L1462.5,1540.5L1501.5,1540.5L1521,1560L1521,1599L1501.5,1618.5L1462.5,1618.5L1443,1599Z" style="fill:rgb(164,163,96);stroke:rgb(164,163,96);stroke-width:1px;"/>
        </g>
        <g id="Layer5" transform="matrix(1,0,0,1,0.5,-4.5)">
            <path d="M604.5,1014L682.5,936L702,936L702,1014L682.5,1033.5L604.5,1033.5" style="fill:rgb(168,0,0);stroke:rgb(168,0,0);stroke-width:1px;"/>
            <path d="M858,292.5L1014,292.5L1033.5,273L1033.5,253.5L858,253.5L858,292.5Z" style="fill:rgb(168,0,0);stroke:rgb(168,0,0);stroke-width:1px;"/>
            <path d="M1228.5,78L1248,97.5L1267.5,156L1287,175.5L1326,175.5L1345.5,195L1345.5,214.5L1228.5,214.5L1209,195L1209,78L1228.5,78Z" style="fill:rgb(168,0,0);stroke:rgb(168,0,0);stroke-width:1px;"/>
            <path d="M1696.5,565.5L1696.5,585L1755,643.5L1794,643.5L1833,624L1872,585L1891.5,585L1911,565.5L1696.5,565.5Z" style="fill:rgb(168,0,0);stroke:rgb(168,0,0);stroke-width:1px;"/>
            <path d="M1774.5,955.5L1774.5,975L1794,994.5L1872,994.5L1891.5,975L1891.5,955.5L1774.5,955.5Z" style="fill:rgb(168,0,0);stroke:rgb(168,0,0);stroke-width:1px;"/>
            <path d="M1462.5,1404L1462.5,1423.5L1599,1462.5L1696.5,1462.5L1696.5,1443L1638,1384.5L1560,1345.5L1540.5,1306.5L1521,1287L1462.5,1404Z" style="fill:rgb(168,0,0);stroke:rgb(168,0,0);stroke-width:1px;"/>
            <path d="M1170,1248L1189.5,1248L1267.5,1170L1267.5,1150.5L1189.5,1150.5L1170,1170L1170,1248Z" style="fill:rgb(168,0,0);stroke:rgb(168,0,0);stroke-width:1px;"/>
            <path d="M1053,565.5L1014,643.5L955.5,702L916.5,702L916.5,682.5L1033.5,448.5L1053,448.5L1053,565.5Z" style="fill:rgb(168,0,0);stroke:rgb(168,0,0);stroke-width:1px;"/>
            <path d="M1033.5,1618.5L1053,1599L1053,1482L1033.5,1482L975,1540.5L858,1599L858,1618.5L1033.5,1618.5Z" style="fill:rgb(168,0,0);stroke:rgb(168,0,0);stroke-width:1px;"/>
            <path d="M1189.5,1482L1072.5,1599L1072.5,1618.5L1189.5,1618.5L1209,1599L1209,1482L1189.5,1482Z" style="fill:rgb(168,0,0);stroke:rgb(168,0,0);stroke-width:1px;"/>
        </g>
    </g>
</svg>
