<?xml version="1.0" encoding="UTF-8" standalone="no"?>
<!DOCTYPE svg PUBLIC "-//W3C//DTD SVG 1.1//EN" "http://www.w3.org/Graphics/SVG/1.1/DTD/svg11.dtd">
<svg width="100%" height="100%" viewBox="0 0 4634 3475" version="1.1" xmlns="http://www.w3.org/2000/svg" xmlns:xlink="http://www.w3.org/1999/xlink" xml:space="preserve" xmlns:serif="http://www.serif.com/" style="fill-rule:evenodd;clip-rule:evenodd;stroke-linecap:round;stroke-linejoin:round;stroke-miterlimit:1.5;">
    <g transform="matrix(2.08333,0,0,2.08333,0,0)">
        <g id="Layer17">
            <g transform="matrix(1,0,0,1,-30.5,-11.45)">
                <path d="M457,1096.8L457,1028.25L502.7,959.7L708.35,982.55L868.3,1142.5L868.3,1188.2L776.9,1233.9L731.2,1279.6L662.65,1325.3L457,1325.3L457,1256.75L479.85,1233.9L479.85,1211.05L502.7,1165.35L525.55,1211.05L548.4,1233.9L594.1,1233.9L594.1,1165.35L616.95,1211.05L639.8,1233.9L685.5,1233.9L731.2,1188.2L731.2,1096.8L708.35,1051.1L685.5,1051.1L662.65,1073.95L639.8,1119.65L639.8,1051.1L616.95,1051.1L571.25,1073.95L548.4,1119.65L548.4,1051.1L525.55,1051.1L479.85,1073.95L457,1096.8Z" style="fill:rgb(208,208,176);stroke:rgb(208,208,176);stroke-width:1px;"/>
            </g>
            <g transform="matrix(1,0,0,1,-30.5,11.4)">
                <path d="M1051.1,776.9L1028.25,776.9L959.7,708.35L959.7,571.25L982.55,548.4L1073.95,548.4L1119.65,616.95L1119.65,639.8L1073.95,639.8L1051.1,662.65L1051.1,776.9Z" style="fill:rgb(208,208,176);stroke:rgb(208,208,176);stroke-width:1px;"/>
            </g>
            <g transform="matrix(1,0,0,1,-76.2,34.25)">
                <path d="M1165.35,639.8L1165.35,776.9L1211.05,822.6L1279.6,822.6L1302.45,799.75L1302.45,731.2L1211.05,639.8L1165.35,639.8Z" style="fill:rgb(208,208,176);stroke:rgb(208,208,176);stroke-width:1px;"/>
            </g>
            <g transform="matrix(1,0,0,1,-53.35,11.4)">
                <path d="M1805.15,1096.8L1713.75,1142.5L1713.75,1279.6L1805.15,1233.9L1805.15,1096.8Z" style="fill:rgb(208,208,176);stroke:rgb(208,208,176);stroke-width:1px;"/>
            </g>
            <g transform="matrix(1,0,0,1,-53.35,-171.4)">
                <path d="M1805.15,1096.8L1713.75,1142.5L1713.75,1279.6L1805.15,1233.9L1805.15,1096.8Z" style="fill:rgb(208,208,176);stroke:rgb(208,208,176);stroke-width:1px;"/>
            </g>
            <g transform="matrix(1,0,0,1,-53.35,-11.45)">
                <path d="M1805.15,1302.45L1805.15,1485.25L1782.3,1530.95L1622.35,1530.95L1622.35,1485.25L1713.75,1393.85L1713.75,1348.15L1805.15,1302.45Z" style="fill:rgb(208,208,176);stroke:rgb(208,208,176);stroke-width:1px;"/>
            </g>
            <g transform="matrix(1,0,0,1,-281.85,-11.45)">
                <rect x="1713.75" y="1485.25" width="91.4" height="45.7" style="fill:rgb(208,208,176);stroke:rgb(208,208,176);stroke-width:1px;"/>
            </g>
            <g transform="matrix(1,0,0,1,-418.95,-11.45)">
                <rect x="1668.05" y="1485.25" width="137.1" height="45.7" style="fill:rgb(208,208,176);stroke:rgb(208,208,176);stroke-width:1px;"/>
            </g>
            <g transform="matrix(1,0,0,1,-738.85,-11.45)">
                <rect x="1668.05" y="1485.25" width="137.1" height="45.7" style="fill:rgb(208,208,176);stroke:rgb(208,208,176);stroke-width:1px;"/>
            </g>
            <g transform="matrix(1,0,0,1,-601.75,-11.45)">
                <rect x="1713.75" y="1485.25" width="91.4" height="45.7" style="fill:rgb(208,208,176);stroke:rgb(208,208,176);stroke-width:1px;"/>
            </g>
            <g transform="matrix(1,0,0,1,-53.35,11.4)">
                <path d="M1805.15,868.3L1805.15,731.2L1759.45,685.5L1553.8,685.5L1530.95,708.35L1530.95,731.2L1668.05,868.3L1713.75,868.3L1713.75,914L1805.15,868.3Z" style="fill:rgb(208,208,176);stroke:rgb(208,208,176);stroke-width:1px;"/>
            </g>
            <path d="M974.9,811.15L1020.6,811.15L1066.3,856.85L1066.3,993.95L974.9,1085.35L883.5,1085.35L814.95,971.1L814.95,902.55L974.9,811.15ZM997.75,902.55L974.9,902.55L974.9,925.4L952.05,948.25L837.8,948.25L837.8,971.1L860.65,993.95L974.9,993.95L1020.6,948.25L1020.6,925.4L997.75,902.55Z" style="fill:rgb(208,208,176);stroke:rgb(208,208,176);stroke-width:1px;"/>
        </g>
        <g id="Layer18">
            <g transform="matrix(1,0,0,1,-30.5,-11.45)">
                <path d="M891.15,1211.05L799.75,1256.75L891.15,1325.3L914,1348.15L936.85,1393.85L959.7,1325.3L936.85,1256.75L891.15,1211.05Z" style="fill:rgb(160,144,63);stroke:rgb(160,144,63);stroke-width:1px;"/>
            </g>
            <g transform="matrix(1,0,0,1,-30.5,-11.45)">
                <path d="M548.4,1622.35L571.25,1599.5L571.25,1576.65L616.95,1530.95L525.55,1530.95L479.85,1576.65L411.3,1576.65L365.6,1553.8L434.15,1622.35L548.4,1622.35Z" style="fill:rgb(160,144,63);stroke:rgb(160,144,63);stroke-width:1px;"/>
            </g>
        </g>
        <g id="Layer20">
            <g transform="matrix(1,0,0,1,-30.5,-11.45)">
                <path d="M662.65,1622.35L662.65,1576.65L731.2,1508.1L822.6,1508.1L891.15,1576.65L891.15,1622.35L662.65,1622.35Z" style="fill:rgb(127,144,95);stroke:rgb(127,144,95);stroke-width:1px;"/>
            </g>
            <g transform="matrix(1,0,0,1,-30.5,-11.45)">
                <path d="M1485.25,137.1L1782.3,114.25L1850.85,114.25L1736.6,182.8L1530.95,274.2L1508.1,297.05L1508.1,319.9L1782.3,228.5L1942.25,205.65L1873.7,297.05L1759.45,342.75L1690.9,365.6L1668.05,388.45L1645.2,434.15L1736.6,411.3L1919.4,388.45L1873.7,479.85L1782.3,525.55L1690.9,571.25L1439.55,571.25L1393.85,457L1165.35,228.5L1188.2,205.65L1485.25,137.1Z" style="fill:rgb(127,144,95);stroke:rgb(127,144,95);stroke-width:1px;"/>
            </g>
        </g>
        <g id="Layer21">
            <g transform="matrix(1,0,0,1,-30.5,-11.45)">
                <path d="M1119.65,319.9L1165.35,228.5L1302.45,205.65L1416.7,228.5L1325.3,251.35L1279.6,297.05L1119.65,319.9Z" style="fill:rgb(63,79,47);stroke:rgb(63,79,47);stroke-width:1px;"/>
            </g>
            <g transform="matrix(1,0,0,1,-30.5,-11.45)">
                <path d="M1188.2,388.45L1233.9,342.75L1279.6,319.9L1439.55,297.05L1485.25,297.05L1393.85,388.45L1233.9,434.15L1188.2,388.45Z" style="fill:rgb(63,79,47);stroke:rgb(63,79,47);stroke-width:1px;"/>
            </g>
            <g transform="matrix(1,0,0,1,-30.5,-11.45)">
                <path d="M1371,434.15L1416.7,411.3L1508.1,388.45L1599.5,388.45L1530.95,434.15L1508.1,479.85L1439.55,502.7L1371,434.15Z" style="fill:rgb(63,79,47);stroke:rgb(63,79,47);stroke-width:1px;"/>
            </g>
        </g>
        <g transform="matrix(1,0,0,1,-30.5,-11.45)">
            <g id="Layer22">
                <path d="M1599.5,914L1599.5,982.55L1508.1,1073.95L1508.1,1119.65L1599.5,1119.65L1645.2,1165.35L1645.2,1393.85L1599.5,1439.55L1508.1,1439.55L1508.1,1393.85L1530.95,1393.85L1553.8,1371L1553.8,1348.15L1416.7,1348.15L1416.7,1256.75L1530.95,1256.75L1553.8,1233.9L1553.8,1211.05L1393.85,1211.05L1393.85,1119.65L1599.5,914Z" style="fill:rgb(176,160,111);stroke:rgb(176,160,111);stroke-width:1px;"/>
            </g>
        </g>
        <g id="Layer16">
            <g transform="matrix(1,0,0,1,-30.5,-11.45)">
                <path d="M388.45,1096.8L365.6,1073.95L365.6,891.15L388.45,868.3L502.7,868.3L639.8,731.2L685.5,639.8L731.2,594.1L776.9,594.1L776.9,685.5L868.3,776.9L982.55,776.9L1005.4,799.75L1005.4,822.6L914,914L891.15,914L868.3,936.85L868.3,982.55L891.15,1005.4L914,1005.4L914,1073.95L936.85,1096.8L959.7,1096.8L959.7,1119.65L936.85,1142.5L799.75,1142.5L731.2,1073.95L731.2,1028.25L685.5,1005.4L662.65,982.55L502.7,982.55L411.3,1028.25L388.45,1096.8Z" style="fill:rgb(95,127,47);stroke:rgb(95,127,47);stroke-width:1px;"/>
            </g>
            <g transform="matrix(1,0,0,1,-30.5,11.4)">
                <path d="M914,731.2L868.3,731.2L822.6,685.5L822.6,502.7L868.3,457L1073.95,457L1096.8,479.85L1096.8,502.7L959.7,502.7L914,548.4L914,731.2Z" style="fill:rgb(95,127,47);stroke:rgb(95,127,47);stroke-width:1px;"/>
            </g>
            <g transform="matrix(1,0,0,1,-30.5,-11.45)">
                <rect x="959.7" y="1530.95" width="137.1" height="91.4" style="fill:rgb(95,127,47);stroke:rgb(95,127,47);stroke-width:1px;"/>
            </g>
            <g transform="matrix(1,0,0,1,-30.5,-11.45)">
                <rect x="1142.5" y="1530.95" width="91.4" height="91.4" style="fill:rgb(95,127,47);stroke:rgb(95,127,47);stroke-width:1px;"/>
            </g>
            <g transform="matrix(1,0,0,1,-30.5,-11.45)">
                <rect x="1279.6" y="1530.95" width="137.1" height="91.4" style="fill:rgb(95,127,47);stroke:rgb(95,127,47);stroke-width:1px;"/>
            </g>
            <g transform="matrix(1,0,0,1,-30.5,-11.45)">
                <rect x="1462.4" y="1530.95" width="91.4" height="91.4" style="fill:rgb(95,127,47);stroke:rgb(95,127,47);stroke-width:1px;"/>
            </g>
            <g transform="matrix(1,0,0,1,-30.5,-11.45)">
                <rect x="1599.5" y="1530.95" width="137.1" height="91.4" style="fill:rgb(95,127,47);stroke:rgb(95,127,47);stroke-width:1px;"/>
            </g>
            <g transform="matrix(1,0,0,1,-30.5,-11.45)">
                <path d="M594.1,1622.35L594.1,1576.65L731.2,1439.55L822.6,1439.55L914,1530.95L914,1622.35L868.3,1622.35L868.3,1576.65L822.6,1530.95L731.2,1530.95L685.5,1576.65L685.5,1622.35L594.1,1622.35Z" style="fill:rgb(95,127,47);stroke:rgb(95,127,47);stroke-width:1px;"/>
            </g>
            <g transform="matrix(1,0,0,1,-76.2,-194.25)">
                <path d="M1828,1119.65L1828,1256.75L1873.7,1256.75L1965.1,1348.15L1965.1,1211.05L1873.7,1119.65L1828,1119.65Z" style="fill:rgb(95,127,47);stroke:rgb(95,127,47);stroke-width:1px;"/>
            </g>
            <g transform="matrix(1,0,0,1,-76.2,-11.45)">
                <path d="M1828,1119.65L1828,1256.75L1873.7,1256.75L1965.1,1348.15L1965.1,1211.05L1873.7,1119.65L1828,1119.65Z" style="fill:rgb(95,127,47);stroke:rgb(95,127,47);stroke-width:1px;"/>
            </g>
            <g transform="matrix(1,0,0,1,-76.2,-11.45)">
                <path d="M1828,1622.35L1919.4,1622.35L1965.1,1530.95L1965.1,1393.85L1873.7,1302.45L1828,1302.45L1828,1485.25L1805.15,1530.95L1828,1622.35Z" style="fill:rgb(95,127,47);stroke:rgb(95,127,47);stroke-width:1px;"/>
            </g>
            <g transform="matrix(1,0,0,1,-30.5,-11.45)">
                <path d="M639.8,365.6L571.25,388.45L502.7,434.15L594.1,548.4L571.25,571.25L685.5,571.25L799.75,457L845.45,434.15L1096.8,434.15L1142.5,479.85L1142.5,616.95L1233.9,708.35L1348.15,708.35L1371,685.5L1371,548.4L1348.15,525.55L1302.45,525.55L1279.6,548.4L1279.6,594.1L1302.45,616.95L1325.3,616.95L1325.3,639.8L1302.45,662.65L1256.75,662.65L1233.9,639.8L1233.9,525.55L1279.6,479.85L1371,479.85L1416.7,525.55L1416.7,548.4L1439.55,571.25L1553.8,525.55L1622.35,479.85L1508.1,457L1439.55,479.85L1393.85,434.15L1485.25,388.45L1393.85,365.6L1233.9,411.3L1211.05,388.45L1256.75,342.75L1371,297.05L1256.75,274.2L1119.65,319.9L1211.05,182.8L1279.6,159.95L1279.6,68.55L1142.5,68.55L1096.8,114.25L1096.8,182.8L1073.95,205.65L1028.25,205.65L1005.4,137.1L959.7,159.95L914,205.65L822.6,251.35L731.2,274.2L662.65,319.9L639.8,365.6Z" style="fill:rgb(95,127,47);stroke:rgb(95,127,47);stroke-width:1px;"/>
            </g>
            <g transform="matrix(1,0,0,1,-30.5,-11.45)">
                <path d="M1919.4,982.55L1828,891.15L1828,754.05L1736.6,662.65L1508.1,662.65L1462.4,708.35L1462.4,845.45L1553.8,845.45L1599.5,891.15L1599.5,936.85L1416.7,1119.65L1416.7,1211.05L1325.3,1211.05L1325.3,1119.65L1462.4,982.55L1462.4,936.85L1416.7,891.15L1371,891.15L1302.45,959.7L1302.45,982.55L1325.3,982.55L1371,936.85L1393.85,936.85L1416.7,959.7L1416.7,982.55L1325.3,1073.95L1279.6,1073.95L1233.9,1028.25L1233.9,891.15L1279.6,845.45L1325.3,754.05L1462.4,616.95L1782.3,616.95L1919.4,754.05L1919.4,982.55Z" style="fill:rgb(95,127,47);stroke:rgb(95,127,47);stroke-width:1px;"/>
            </g>
        </g>
        <g id="Layer15">
            <g transform="matrix(1,0,0,1,-30.5,-11.45)">
                <path d="M548.4,959.7L594.1,914L776.9,685.5L822.6,731.2L685.5,868.3L731.2,868.3L845.45,754.05L868.3,776.9L914,776.9L708.35,982.55L776.9,1005.4L776.9,1096.8L754.05,1096.8L731.2,1073.95L731.2,1028.25L685.5,1005.4L662.65,959.7L548.4,959.7Z" style="fill:rgb(63,79,47);stroke:rgb(63,79,47);stroke-width:1px;"/>
            </g>
            <g transform="matrix(1,0,0,1,-30.5,-11.45)">
                <path d="M388.45,936.85L388.45,914L411.3,891.15L411.3,936.85L388.45,936.85Z" style="fill:rgb(63,79,47);stroke:rgb(63,79,47);stroke-width:1px;"/>
            </g>
        </g>
        <g id="Layer19">
            <g transform="matrix(1,0,0,1,-30.5,-11.45)">
                <path d="M662.65,1325.3L639.8,1371L594.1,1416.7L388.45,1416.7L342.75,1393.85L411.3,1371L457,1325.3L662.65,1325.3Z" style="fill:rgb(31,31,15);stroke:rgb(31,31,15);stroke-width:1px;"/>
            </g>
            <g transform="matrix(1,0,0,1,-30.5,11.4)">
                <path d="M594.1,525.55L571.25,548.4L502.7,571.25L457,639.8L434.15,731.2L411.3,457L457,411.3L502.7,411.3L594.1,525.55Z" style="fill:rgb(31,31,15);stroke:rgb(31,31,15);stroke-width:1px;"/>
            </g>
            <g transform="matrix(1,0,0,1,-30.5,11.4)">
                <path d="M662.65,411.3L639.8,365.6L594.1,319.9L548.4,297.05L594.1,274.2L662.65,274.2L731.2,319.9L731.2,388.45L708.35,411.3L662.65,411.3Z" style="fill:rgb(31,31,15);stroke:rgb(31,31,15);stroke-width:1px;"/>
            </g>
            <g transform="matrix(1,0,0,1,152.3,-125.7)">
                <path d="M662.65,411.3L639.8,365.6L594.1,319.9L548.4,297.05L594.1,274.2L662.65,274.2L731.2,319.9L731.2,388.45L708.35,411.3L662.65,411.3Z" style="fill:rgb(31,31,15);stroke:rgb(31,31,15);stroke-width:1px;"/>
            </g>
            <g transform="matrix(1,0,0,1,335.1,-217.1)">
                <path d="M662.65,411.3L639.8,365.6L594.1,319.9L548.4,297.05L594.1,274.2L662.65,274.2L731.2,319.9L731.2,388.45L708.35,411.3L662.65,411.3Z" style="fill:rgb(31,31,15);stroke:rgb(31,31,15);stroke-width:1px;"/>
            </g>
            <g transform="matrix(1,0,0,1,-53.35,34.25)">
                <path d="M1302.45,114.25L1302.45,22.85L1462.4,22.85L1530.95,45.7L1416.7,68.55L1348.15,114.25L1302.45,114.25Z" style="fill:rgb(31,31,15);stroke:rgb(31,31,15);stroke-width:1px;"/>
            </g>
            <g transform="matrix(1,0,0,1,-30.5,-11.45)">
                <path d="M1599.5,1142.5L1599.5,1096.8L1622.35,1073.95L1668.05,1051.1L1645.2,1096.8L1645.2,1165.35L1622.35,1165.35L1599.5,1142.5Z" style="fill:rgb(31,31,15);stroke:rgb(31,31,15);stroke-width:1px;"/>
            </g>
            <g transform="matrix(1,0,0,1,-30.5,-11.45)">
                <path d="M1348.15,1256.75L1233.9,1256.75L1188.2,1302.45L1188.2,1393.85L1211.05,1439.55L1233.9,1393.85L1279.6,1348.15L1371,1348.15L1371,1279.6L1348.15,1256.75Z" style="fill:rgb(31,31,15);stroke:rgb(31,31,15);stroke-width:1px;"/>
            </g>
            <g transform="matrix(1,0,0,1,-41.925,-11.45)">
                <path d="M1393.85,1393.85L1371,1416.7L1371,1462.4L1393.85,1485.25L1393.85,1462.4L1416.7,1439.55L1485.25,1439.55L1485.25,1416.7L1462.4,1393.85L1393.85,1393.85Z" style="fill:rgb(31,31,15);stroke:rgb(31,31,15);stroke-width:1px;"/>
            </g>
        </g>
        <g transform="matrix(1,0,0,1,-30.5,-11.45)">
            <g id="Layer14">
                <path d="M594.1,936.85L639.8,891.15L662.65,891.15L685.5,914L662.65,936.85L594.1,936.85Z" style="fill:rgb(224,95,0);stroke:rgb(224,95,0);stroke-width:1px;"/>
            </g>
        </g>
    </g>
</svg>
