<?xml version="1.0" encoding="UTF-8" standalone="no"?>
<!DOCTYPE svg PUBLIC "-//W3C//DTD SVG 1.1//EN" "http://www.w3.org/Graphics/SVG/1.1/DTD/svg11.dtd">
<svg width="100%" height="100%" viewBox="0 0 4634 3475" version="1.1" xmlns="http://www.w3.org/2000/svg" xmlns:xlink="http://www.w3.org/1999/xlink" xml:space="preserve" xmlns:serif="http://www.serif.com/" style="fill-rule:evenodd;clip-rule:evenodd;stroke-linecap:round;stroke-linejoin:round;stroke-miterlimit:1.5;">
    <g transform="matrix(2.08333,0,0,2.08333,0,0)">
        <g id="Layer10" transform="matrix(1,0,0,1,0.5,15)">
            <path d="M1131,936L1033.5,838.5L1014,838.5L936,916.5L936,955.5L975,975L994.5,994.5L1014,1033.5L1072.5,1092L1092,1150.5L1150.5,1209L1189.5,1228.5L1209,1209L1248,1170L1248,1131L1131,975L1131,936Z" style="fill:rgb(31,127,176);stroke:rgb(31,127,176);stroke-width:1px;"/>
            <path d="M1092,175.5L897,175.5L858,195L760.5,292.5L760.5,312L994.5,312L1014,273L1092,175.5Z" style="fill:rgb(31,127,176);stroke:rgb(31,127,176);stroke-width:1px;"/>
            <path d="M702,1579.5L643.5,1521L643.5,1501.5L487.5,1501.5L487.5,1521L565.5,1579.5L702,1579.5Z" style="fill:rgb(31,127,176);stroke:rgb(31,127,176);stroke-width:1px;"/>
        </g>
        <g id="Layer11" transform="matrix(1,0,0,1,0.5,15)">
            <path d="M1072.5,1092L1092,1150.5L1150.5,1209L1189.5,1228.5L1150.5,1248L1131,1267.5L1092,1287L1014,1306.5L994.5,1326L955.5,1345.5L916.5,1365L897,1345.5L877.5,1306.5L838.5,1267.5L799.5,1248L877.5,1150.5L858,1111.5L819,1072.5L760.5,1033.5L858,975L877.5,955.5L936,916.5L955.5,955.5L994.5,994.5L1014,1033.5L1072.5,1092Z" style="fill:rgb(15,192,111);stroke:rgb(15,192,111);stroke-width:1px;"/>
            <path d="M955.5,175.5L936,156L877.5,136.5L682.5,136.5L643.5,156L507,292.5L507,312L760.5,312L760.5,292.5L858,195L897,175.5L955.5,175.5Z" style="fill:rgb(15,192,111);stroke:rgb(15,192,111);stroke-width:1px;"/>
        </g>
        <g id="Layer12" transform="matrix(1,0,0,1,0.5,15)">
            <path d="M760.5,1033.5L819,1072.5L858,1111.5L877.5,1150.5L799.5,1248L838.5,1267.5L877.5,1306.5L897,1345.5L916.5,1365L877.5,1384.5L838.5,1404L799.5,1423.5L760.5,1443L741,1462.5L643.5,1462.5L604.5,1423.5L604.5,1345.5L624,1326L643.5,1306.5L643.5,1287L585,1306.5L565.5,1306.5L507,1248L507,1170L546,1131L585,1111.5L624,1092L663,1072.5L702,1053L760.5,1033.5Z" style="fill:rgb(144,208,79);stroke:rgb(144,208,79);stroke-width:1px;"/>
            <path d="M721.5,136.5L682.5,117L585,97.5L468,78L370.5,58.5L351,78L351,136.5L390,214.5L429,253.5L468,273L507,312L507,292.5L643.5,156L682.5,136.5L721.5,136.5Z" style="fill:rgb(144,208,79);stroke:rgb(144,208,79);stroke-width:1px;"/>
        </g>
        <g id="Layer9" transform="matrix(1,0,0,1,0.5,15)">
            <path d="M1112,955.5L1131,936L1131,721.5L1189.5,721.5L1189.5,702L1170,682.5L1131,663L1150.5,643.5L1150.5,624L1131,604.5L1131,585L1189.5,526.5L1189.5,507L1209,507L1326,390L1443,390L1501.5,448.5L1501.5,624L1326,799.5L1306.5,799.5L1287,819L1287,994.5L1248,1033.5L1170,1033.5L1150.5,1053L1131,1072.5L1112,1092L682.5,1306.5L624,1306.5L604.5,1287L604.5,1267.5L994.5,1072.5L1112,955.5Z" style="fill:rgb(31,15,47);stroke:rgb(31,15,47);stroke-width:1px;"/>
        </g>
        <g id="Layer8" transform="matrix(1,0,0,1,0.5,15)">
            <path d="M1501.5,624L1462.5,663L1462.5,487.5L1443,468L1384.5,468L1306.5,546L1306.5,624L1326,624L1423.5,526.5L1443,526.5L1443,604.5L1326,721.5L1267.5,721.5L1248,702L1248,526.5L1345.5,429L1482,429L1501.5,448.5L1501.5,624Z" style="fill:rgb(47,47,144);stroke:rgb(31,15,47);stroke-width:1px;"/>
            <path d="M1794,390L1755,429L1716,429L1677,390L1677,351L1716,312L1521,312L1618.5,409.5L1657.5,507L1677,643.5L1657.5,643.5L1599,565.5L1540.5,507L1501.5,429L1423.5,351L1404,312L1365,312L1345.5,351L1209,468L1131,487.5L1072.5,487.5L1053,507L1189.5,507L1189.5,526.5L1131,585L1092,585L1092,604.5L1189.5,702L1189.5,721.5L1131,721.5L1112,741L1072.5,741L1053,721.5L1053,760.5L994.5,760.5L975,799.5L936,838.5L624,838.5L546,916.5L507,916.5L429,838.5L429,780L448.5,760.5L468,760.5L468,702L487.5,702L546,760.5L643.5,760.5L643.5,702L663,702L721.5,760.5L838.5,760.5L780,624L682.5,624L682.5,682.5L663,682.5L604.5,624L507,624L507,682.5L487.5,682.5L351,546L351,429L390,390L429,390L487.5,448.5L507,448.5L526.5,468L565.5,468L682.5,351L936,351L955.5,331.5L1014,253.5L1170,97.5L1248,58.5L1579.5,58.5L1755,136.5L1833,214.5L1872,312L1872,351L1794,390Z" style="fill:rgb(47,47,144);stroke:rgb(47,47,144);stroke-width:1px;"/>
            <path d="M1501.5,624L1462.5,663L1462.5,487.5L1443,468L1384.5,468L1306.5,546L1306.5,624L1326,624L1423.5,526.5L1443,526.5L1443,604.5L1326,721.5L1267.5,721.5L1248,702L1248,526.5L1345.5,429L1482,429L1501.5,448.5L1501.5,624Z" style="fill:rgb(47,47,144);stroke:rgb(47,47,144);stroke-width:1px;"/>
            <rect x="760.5" y="760.5" width="78" height="78" style="fill:rgb(31,15,47);stroke:rgb(31,15,47);stroke-width:1px;"/>
            <path d="M643.5,838.5L643.5,760.5L546,760.5L546,916.5L624,838.5L643.5,838.5Z" style="fill:rgb(31,15,47);stroke:rgb(31,15,47);stroke-width:1px;"/>
            <path d="M507,624L546,624L546,604.5L409.5,468L390,468L390,507L507,624Z" style="fill:rgb(31,15,47);stroke:rgb(31,15,47);stroke-width:1px;"/>
            <path d="M1072.5,741L1092,741L1072.5,760.5L994.5,760.5L819,585L799.5,585L780,624L663,624L643.5,604.5L643.5,546L565.5,468L585,448.5L604.5,448.5L663,507L780,507L799.5,487.5L799.5,468L858,468L936,487.5L1053,526.5L975,604.5L975,643.5L1072.5,741Z" style="fill:rgb(31,15,47);stroke:rgb(31,15,47);stroke-width:1px;"/>
            <path d="M1462.5,994.5L1462.5,897L1482,897L1501.5,916.5L1501.5,1053L1462.5,1092L1423.5,1092L1384.5,1053L1384.5,858L1462.5,780L1501.5,780L1540.5,799.5L1579.5,838.5L1579.5,1014L1599,1014L1618.5,994.5L1618.5,1131L1579.5,1131L1540.5,1170L1540.5,1209L1579.5,1248L1618.5,1248L1599,1267.5L1482,1384.5L1248,1384.5L1248,1267.5L1228.5,1267.5L1131,1365L1131,1384.5L1072.5,1384.5L1112,1345.5L1112,1287L1131,1267.5L1150.5,1248L1326,1248L1345.5,1267.5L1404,1267.5L1423.5,1248L1443,1248L1462.5,1228.5L1462.5,1189.5L1423.5,1170L1423.5,1131L1501.5,1131L1540.5,1092L1540.5,877.5L1501.5,838.5L1482,838.5L1423.5,897L1423.5,1014L1443,1014L1462.5,994.5Z" style="fill:rgb(31,15,47);stroke:rgb(31,15,47);stroke-width:1px;"/>
            <path d="M1618.5,1131L1579.5,1131L1540.5,1170L1540.5,1209L1579.5,1248L1618.5,1248L1618.5,1131Z" style="fill:rgb(47,47,144);stroke:rgb(47,47,144);stroke-width:1px;"/>
            <path d="M1248,1384.5L1248,1267.5L1228.5,1267.5L1131,1365L1131,1384.5L1248,1384.5Z" style="fill:rgb(47,47,144);stroke:rgb(47,47,144);stroke-width:1px;"/>
            <path d="M1072.5,1384.5L1112,1345.5L1112,1287L1092,1287L1033.5,1306.5L1014,1326L1014,1384.5L1072.5,1384.5Z" style="fill:rgb(47,47,144);stroke:rgb(47,47,144);stroke-width:1px;"/>
            <path d="M1521,312L1716,312L1677,351L1677,390L1716,429L1755,429L1794,390L1872,351L1872,507L1833,468L1735.5,468L1735.5,487.5L1872,624L1872,682.5L1833,643.5L1735.5,643.5L1735.5,663L1872,799.5L1872,858L1813.5,799.5L1735.5,799.5L1735.5,819L1872,955.5L1872,1053L1813.5,994.5L1735.5,994.5L1735.5,1014L1872,1150.5L1872,1228.5L1813.5,1170L1735.5,1170L1735.5,1189.5L1872,1326L1872,1423.5L1813.5,1365L1716,1365L1657.5,1423.5L1696.5,1521L1657.5,1540.5L1638,1540.5L1599,1521L1579.5,1501.5L1462.5,1501.5L1462.5,1521L1482,1521L1501.5,1540.5L1423.5,1540.5L1384.5,1521L1365,1501.5L1248,1501.5L1248,1521L1267.5,1521L1287,1540.5L1209,1540.5L1170,1521L1150.5,1501.5L1033.5,1501.5L1033.5,1521L1053,1521L1072.5,1540.5L994.5,1540.5L955.5,1501.5L858,1501.5L858,1521L916.5,1579.5L858,1579.5L780,1501.5L624,1501.5L604.5,1482L604.5,1423.5L643.5,1462.5L741,1462.5L760.5,1443L838.5,1404L994.5,1404L1014,1423.5L1618.5,1423.5L1677,1365L1677,1326L1716,1287L1716,1209L1677,1170L1677,1150.5L1716,1111.5L1716,1033.5L1677,994.5L1677,975L1716,916.5L1735.5,916.5L1755,897L1755,858L1716,819L1716,780L1677,682.5L1657.5,643.5L1657.5,507L1618.5,409.5L1521,312Z" style="fill:rgb(31,15,47);stroke:rgb(31,15,47);stroke-width:1px;"/>
            <path d="M1345.5,799.5L1521,624L1599,624L1638,663L1638,682.5L1599,702L1540.5,760.5L1560,760.5L1599,721.5L1657.5,702L1696.5,682.5L1735.5,682.5L1755,702L1755,741L1716,780L1677,780L1618.5,838.5L1716,819L1755,858L1755,897L1735.5,916.5L1716,916.5L1696.5,897L1677,916.5L1657.5,955.5L1599,1014L1579.5,1014L1579.5,858L1579.5,838.5L1540.5,799.5L1501.5,780L1462.5,780L1384.5,858L1384.5,1053L1423.5,1092L1462.5,1092L1501.5,1053L1501.5,916.5L1482,897L1462.5,897L1462.5,994.5L1443,1014L1423.5,1014L1423.5,897L1482,838.5L1501.5,838.5L1540.5,877.5L1540.5,1092L1501.5,1131L1384.5,1131L1345.5,1092L1345.5,799.5Z" style="fill:rgb(47,47,144);stroke:rgb(47,47,144);stroke-width:1px;"/>
            <path d="M1872,624L1872,507L1833,468L1735.5,468L1735.5,487.5L1872,624Z" style="fill:rgb(47,47,144);stroke:rgb(47,47,144);stroke-width:1px;"/>
            <path d="M1872,682.5L1833,643.5L1735.5,643.5L1735.5,663L1872,799.5L1872,682.5Z" style="fill:rgb(47,47,144);stroke:rgb(47,47,144);stroke-width:1px;"/>
            <path d="M1872,955.5L1872,858L1813.5,799.5L1735.5,799.5L1735.5,819L1872,955.5Z" style="fill:rgb(47,47,144);stroke:rgb(47,47,144);stroke-width:1px;"/>
            <path d="M1872,1053L1813.5,994.5L1735.5,994.5L1735.5,1014L1872,1150.5L1872,1053Z" style="fill:rgb(47,47,144);stroke:rgb(47,47,144);stroke-width:1px;"/>
            <path d="M1872,1228.5L1813.5,1170L1735.5,1170L1735.5,1189.5L1872,1326L1872,1228.5Z" style="fill:rgb(47,47,144);stroke:rgb(47,47,144);stroke-width:1px;"/>
            <path d="M1872,1423.5L1813.5,1365L1716,1365L1657.5,1423.5L1657.5,1521L1716,1579.5L1794,1579.5L1872,1501.5L1872,1423.5Z" style="fill:rgb(47,47,144);stroke:rgb(47,47,144);stroke-width:1px;"/>
            <path d="M1579.5,1501.5L1462.5,1501.5L1462.5,1521L1482,1521L1540.5,1579.5L1696.5,1579.5L1677,1560L1657.5,1540.5L1599,1521L1579.5,1501.5Z" style="fill:rgb(47,47,144);stroke:rgb(47,47,144);stroke-width:1px;"/>
            <path d="M1618.5,1423.5L1677,1365L1677,1326L1716,1287L1716,1209L1677,1170L1677,1287L1657.5,1306.5L1638,1345.5L1579.5,1404L1560,1404L1540.5,1423.5L1618.5,1423.5Z" style="fill:rgb(47,47,144);stroke:rgb(47,47,144);stroke-width:1px;"/>
            <path d="M1677,1150.5L1716,1111.5L1716,1033.5L1677,994.5L1677,1150.5Z" style="fill:rgb(47,47,144);stroke:rgb(47,47,144);stroke-width:1px;"/>
            <path d="M1248,1501.5L1248,1521L1267.5,1521L1287,1540.5L1345.5,1579.5L1501.5,1579.5L1482,1560L1443,1540.5L1423.5,1540.5L1384.5,1521L1365,1501.5L1248,1501.5Z" style="fill:rgb(47,47,144);stroke:rgb(47,47,144);stroke-width:1px;"/>
            <path d="M1033.5,1501.5L1033.5,1521L1053,1521L1072.5,1540.5L1131,1579.5L1287,1579.5L1267.5,1560L1228.5,1540.5L1209,1540.5L1170,1521L1150.5,1501.5L1033.5,1501.5Z" style="fill:rgb(47,47,144);stroke:rgb(47,47,144);stroke-width:1px;"/>
            <path d="M858,1501.5L858,1521L916.5,1579.5L1033.5,1579.5L1033.5,1560L994.5,1540.5L955.5,1501.5L858,1501.5Z" style="fill:rgb(47,47,144);stroke:rgb(47,47,144);stroke-width:1px;"/>
            <path d="M780,1501.5L643.5,1501.5L643.5,1521L702,1579.5L858,1579.5L780,1501.5Z" style="fill:rgb(47,47,144);stroke:rgb(47,47,144);stroke-width:1px;"/>
            <path d="M1267.5,214.5L1248,214.5L1248,58.5L1170,97.5L1150.5,117L1131,175.5L1092,234L1014,253.5L936,351L936,370.5L955.5,390L994.5,390L1053,331.5L1072.5,331.5L1170,429L1170,477.755L1209,468L1267.5,419.25L1326,367.713L1326,351L1287,331.5L1228.5,312L1189.5,273L1189.5,253.5L1345.5,253.5L1365,273L1365,312L1404,312L1404,214.5L1423.5,214.5L1521,312L1716,312L1755,273L1833,214.5L1755,136.5L1618.5,273L1599,273L1579.5,253.5L1579.5,234L1700.96,112.484L1605.53,70.067L1501.5,195L1482,195L1443,156L1443,136.5L1521,58.5L1423.5,58.5L1267.5,214.5Z" style="fill:rgb(31,15,47);stroke:rgb(31,15,47);stroke-width:1px;"/>
        </g>
        <g id="Layer13" transform="matrix(1,0,0,1,0.5,15)">
            <path d="M799.5,468L741,468L682.5,487.5L663,507L780,507L799.5,487.5L799.5,468Z" style="fill:rgb(224,176,0);stroke:rgb(224,176,0);stroke-width:1px;"/>
        </g>
    </g>
</svg>
