<?xml version="1.0" encoding="UTF-8" standalone="no"?>
<!DOCTYPE svg PUBLIC "-//W3C//DTD SVG 1.1//EN" "http://www.w3.org/Graphics/SVG/1.1/DTD/svg11.dtd">
<svg width="100%" height="100%" viewBox="0 0 4634 3475" version="1.1" xmlns="http://www.w3.org/2000/svg" xmlns:xlink="http://www.w3.org/1999/xlink" xml:space="preserve" xmlns:serif="http://www.serif.com/" style="fill-rule:evenodd;clip-rule:evenodd;stroke-linecap:round;stroke-linejoin:round;stroke-miterlimit:1.5;">
    <g transform="matrix(2.08333,0,0,2.08333,0,0)">
        <g id="Layer6">
            <path d="M1763.3,893.1L1763.3,984.7L1671.7,1076.3L1488.5,1076.3L1488.5,938.9L1534.3,893.1L1763.3,893.1Z" style="fill:rgb(176,160,192);stroke:rgb(176,160,192);stroke-width:1px;"/>
            <path d="M1580.1,709.9L1580.1,618.3L1488.5,526.7L1259.5,526.7L1259.5,618.3L1305.3,664.1L1442.7,709.9L1580.1,709.9Z" style="fill:rgb(176,160,192);stroke:rgb(176,160,192);stroke-width:1px;"/>
        </g>
        <g id="Layer5">
            <path d="M1305.3,1167.9L1717.5,1167.9L1763.3,1076.3L1763.3,1488.5L1122.1,1488.5L1167.9,1167.9L1305.3,1167.9Z" style="fill:rgb(160,47,63);stroke:rgb(160,47,63);stroke-width:1px;"/>
            <path d="M1763.3,755.7L1442.7,755.7L1396.9,801.5L1396.9,961.8L1374,984.7L1351.1,984.7L1328.2,1030.5L1213.7,1030.5L1213.7,1053.4L1236.6,1076.3L1488.5,1076.3L1488.5,938.9L1534.3,893.1L1763.3,893.1L1763.3,755.7Z" style="fill:rgb(160,47,63);stroke:rgb(160,47,63);stroke-width:1px;"/>
            <path d="M1786.2,709.9L1776.18,522.406L1680.29,429.518L1582.25,377.278L1501.81,329.331L1398.62,237.302L1112,241.449L915.02,265.329L882.976,317.661L935.961,351.011L1130.92,352.971L1180.31,311.743L1335.64,310.411L1325.33,349.684L1239.23,435.787L1259.5,526.7L1488.5,526.7L1580.1,618.3L1580.1,709.9L1786.2,709.9Z" style="fill:rgb(160,47,63);stroke:rgb(160,47,63);stroke-width:1px;"/>
        </g>
        <g id="Layer1">
            <path d="M1465.6,1534.3L1442.7,1557.2L1442.7,1580.1L1488.5,1625.9L1351.1,1625.9L1259.5,1534.3L1465.6,1534.3ZM1809.1,1465.6L1832,1442.7L1854.9,1442.7L1854.9,1534.3L1145,1534.3L1122.1,1557.2L1122.1,1580.1L1167.9,1625.9L1030.5,1625.9L938.9,1534.3L1041.95,1534.3L847.3,1534.3L824.4,1557.2L824.4,1580.1L916,1625.9L709.9,1625.9L618.3,1534.3L503.8,1534.3L503.8,1580.1L572.5,1625.9L435.1,1625.9L389.3,1580.1L389.3,1488.5L415.471,1449.24L389.3,1396.9L389.3,1007.6L343.5,1007.6L297.7,1099.2L297.7,916L343.5,870.2L389.3,801.5L389.3,687L343.5,687L297.7,778.6L297.7,595.4L343.5,549.6L343.5,503.8L389.3,458L389.3,343.5L343.5,366.4L297.7,458L297.7,251.9L343.5,206.1L389.3,137.4L412.2,68.7L435.1,68.7L435.1,1396.9L458,1442.7L526.7,1488.5L1809.1,1488.5L1809.1,1465.6ZM1763.3,1534.3L1717.5,1580.1L1717.5,1603L1740.4,1625.9L1625.9,1625.9L1580.1,1534.3L1763.3,1534.3ZM1671.7,1488.5L1694.6,1442.7L1717.5,1442.7L1740.4,1396.9L1763.3,1396.9L1763.3,1488.5L1671.7,1488.5ZM343.5,1213.7L389.3,1122.1L389.3,1305.3L343.5,1328.2L297.7,1419.8L297.7,1213.7L343.5,1213.7Z" style="fill:rgb(31,31,95);stroke:rgb(31,31,95);stroke-width:1px;"/>
            <path d="M1832,1236.6L1854.9,1167.9L1854.9,1030.5L1809.1,1030.5L1786.2,1053.4L1786.2,1236.6L1832,1236.6Z" style="fill:rgb(31,31,95);stroke:rgb(31,31,95);stroke-width:1px;"/>
            <path d="M1351.1,984.7L1282.4,984.7L1259.5,961.8L1259.5,893.1L1213.7,847.3L1030.5,847.3L984.7,893.1L984.7,1030.5L1030.5,1076.3L1145,1076.3L1167.9,1030.5L1099.2,1030.5L1076.3,1007.6L1076.3,961.8L1099.2,938.9L1145,938.9L1167.9,984.7L1213.7,1030.5L1351.1,1030.5L1351.1,984.7Z" style="fill:rgb(31,31,95);stroke:rgb(31,31,95);stroke-width:1px;"/>
            <path d="M1122.1,251.9L916,274.8L893.1,320.6L893.1,366.4L938.9,366.4L961.8,343.5L1122.1,343.5L1167.9,297.7L1351.1,297.7L1351.1,343.5L1259.5,435.1L1259.5,618.3L1305.3,664.1L1442.7,687L1442.7,709.9L1167.9,709.9L1167.9,801.5L1099.2,709.9L1030.5,709.9L1030.5,801.5L961.8,709.9L778.6,709.9L755.7,687L755.7,572.5L801.5,618.3L847.3,618.3L847.3,572.5L893.1,618.3L938.9,618.3L984.7,572.5L1122.1,572.5L1076.3,526.7L1053.4,480.9L893.1,480.9L847.3,526.7L847.3,480.9L801.5,480.9L755.7,526.7L755.7,343.5L801.5,297.7L870.2,297.7L893.1,274.8L893.1,229L824.4,206.1L801.5,160.3L755.7,114.5L732.8,68.7L824.4,91.6L893.1,160.3L1030.5,160.3L1099.2,229L1122.1,229L1099.2,114.5L1053.4,68.7L1145,68.7L1190.8,160.3L1213.7,160.3L1282.4,229L1305.3,229L1351.1,206.1L1351.1,137.4L1305.3,91.6L1396.9,91.6L1442.7,160.3L1463.06,262.078L1534.3,297.7L1580.1,297.7L1580.1,251.9L1557.2,206.1L1511.4,160.3L1625.9,160.3L1671.7,206.1L1717.5,274.8L1717.5,389.3L1701.65,421.008L1709.06,430.279L1763.3,412.2L1809.1,389.3L1854.9,297.7L1854.9,526.7L1788.95,570.668L1792.74,631.386L1809.1,664.1L1832,664.1L1854.9,641.2L1854.9,847.3L1809.1,893.1L1786.2,938.9L1763.3,984.7L1763.3,526.7L1671.7,435.1L1488.5,343.5L1396.9,251.9L1122.1,251.9Z" style="fill:rgb(31,31,95);stroke:rgb(31,31,95);stroke-width:1px;"/>
        </g>
        <g id="Layer2">
            <path d="M1167.9,1580.1L1167.9,1603L1190.8,1625.9L1259.5,1625.9L1236.6,1603L1190.8,1580.1L1167.9,1580.1Z" style="fill:rgb(79,176,240);stroke:rgb(79,176,240);stroke-width:1px;"/>
            <g transform="matrix(1,0,0,1,572.5,0)">
                <path d="M1167.9,1603L1190.8,1625.9L1282.4,1625.9L1236.6,1603L1190.8,1603L1167.9,1603Z" style="fill:rgb(79,176,240);stroke:rgb(79,176,240);stroke-width:1px;"/>
            </g>
            <g transform="matrix(1,0,0,1,320.6,-2.27374e-13)">
                <path d="M1167.9,1603L1190.8,1625.9L1259.5,1625.9L1213.7,1603L1167.9,1580.1L1167.9,1603Z" style="fill:rgb(79,176,240);stroke:rgb(79,176,240);stroke-width:1px;"/>
            </g>
            <path d="M1076.3,1488.5L526.7,1488.5L458,1442.7L435.1,1396.9L435.1,68.7L458,68.7L480.9,160.3L526.7,206.1L641.2,274.8L641.2,526.7L709.9,847.3L801.5,893.1L801.5,938.9L664.1,938.9L664.1,984.7L709.9,984.7L709.9,1076.3L847.3,1167.9L1305.3,1167.9L1282.4,1213.7L1259.5,1213.7L1236.6,1236.6L1076.3,1488.5Z" style="fill:rgb(79,176,240);stroke:rgb(79,176,240);stroke-width:1px;"/>
            <g transform="matrix(-1,0,0,1,3686.9,0)">
                <path d="M1832,1419.8L1832,1396.9L1832,1351.1L1854.9,1419.8" style="fill:rgb(79,176,240);stroke:rgb(79,176,240);stroke-width:1px;"/>
            </g>
            <path d="M1809.1,1007.6L1854.9,893.1L1854.9,1007.6L1809.1,1007.6Z" style="fill:rgb(79,176,240);stroke:rgb(79,176,240);stroke-width:1px;"/>
            <path d="M893.1,366.4L893.1,320.6L938.9,297.7L984.7,286.25L961.8,343.5L938.9,366.4L893.1,366.4Z" style="fill:rgb(79,176,240);stroke:rgb(79,176,240);stroke-width:1px;"/>
            <path d="M1832,641.2L1832,618.3L1843.13,572.5L1854.9,618.3L1832,641.2Z" style="fill:rgb(79,176,240);stroke:rgb(79,176,240);stroke-width:1px;"/>
            <g transform="matrix(1,0,0,1,-11.45,-343.5)">
                <path d="M1843.45,641.2L1843.45,618.3L1820.55,572.5L1866.35,618.3L1843.45,641.2Z" style="fill:rgb(79,176,240);stroke:rgb(79,176,240);stroke-width:1px;"/>
            </g>
            <path d="M1534.3,137.4L1625.9,114.5L1671.7,160.3L1671.7,183.2L1625.9,137.4L1534.3,137.4Z" style="fill:rgb(79,176,240);stroke:rgb(79,176,240);stroke-width:1px;"/>
            <g transform="matrix(1,0,0,1,45.8,0)">
                <path d="M1305.3,68.7L1374,91.6L1396.9,114.5L1419.8,123.491L1396.9,80.06L1374,68.7L1305.3,68.7Z" style="fill:rgb(79,176,240);stroke:rgb(79,176,240);stroke-width:1px;"/>
            </g>
            <path d="M893.1,137.4L938.9,114.5L984.7,114.5L1030.5,137.4L893.1,137.4Z" style="fill:rgb(79,176,240);stroke:rgb(79,176,240);stroke-width:1px;"/>
            <path d="M1236.6,137.4L1190.8,114.5L1167.9,68.7L1190.8,79.688L1259.5,137.4" style="fill:rgb(79,176,240);stroke:rgb(79,176,240);stroke-width:1px;"/>
        </g>
        <g id="Layer4">
            <g transform="matrix(1,0,0,1,320.6,0)">
                <path d="M709.9,1488.5L709.9,1442.7L687,1419.8L687,1351.1L709.9,1328.2L801.5,1328.2L847.3,1305.3L847.3,1259.5L870.2,1236.6L916,1236.6L984.7,1305.3L938.9,1305.3L938.9,1328.2L904.637,1351.1L847.3,1419.8L824.4,1419.8L824.4,1465.6L870.2,1465.6L893.1,1488.5L709.9,1488.5Z" style="fill:rgb(79,31,31);stroke:rgb(79,31,31);stroke-width:1px;"/>
            </g>
            <g transform="matrix(1,0,0,1,641.2,0)">
                <path d="M709.9,1488.5L709.9,1442.7L687,1419.8L687,1351.1L709.9,1328.2L801.5,1328.2L824.4,1305.3L824.4,1236.6L916,1236.6L938.9,1259.5L938.9,1282.4L984.7,1282.4L984.7,1305.3L938.9,1328.2L938.9,1351.1L893.1,1419.8L847.3,1419.8L847.3,1465.6L893.1,1465.6L916,1488.5L709.9,1488.5Z" style="fill:rgb(79,31,31);stroke:rgb(79,31,31);stroke-width:1px;"/>
            </g>
            <path d="M1625.9,1351.1L1648.8,1305.3L1694.6,1305.3L1717.5,1328.2L1717.5,1374L1694.6,1419.8L1648.8,1396.9L1625.9,1374L1625.9,1351.1Z" style="fill:rgb(79,31,31);stroke:rgb(79,31,31);stroke-width:1px;"/>
            <path d="M1694.6,1259.5L1671.7,1213.7L1694.6,1190.8L1694.6,1167.9L1717.5,1190.8L1717.5,1236.6L1694.6,1259.5Z" style="fill:rgb(79,31,31);stroke:rgb(79,31,31);stroke-width:1px;"/>
            <g transform="matrix(1,0,0,1,-320.6,22.9)">
                <path d="M1694.6,1259.5L1671.7,1213.7L1694.6,1190.8L1694.6,1167.9L1717.5,1190.8L1717.5,1236.6L1694.6,1259.5Z" style="fill:rgb(79,31,31);stroke:rgb(79,31,31);stroke-width:1px;"/>
            </g>
        </g>
        <g id="Layer3">
            <path d="M435.1,183.2L480.9,206.1L526.7,297.7L572.5,343.5L572.5,526.7L526.7,480.9L480.9,480.9L458,435.1L435.1,412.2L435.1,183.2Z" style="fill:rgb(47,79,192);stroke:rgb(47,79,192);stroke-width:1px;"/>
            <g transform="matrix(1,0,0,1,0,343.5)">
                <path d="M435.1,183.2L480.9,206.1L526.7,297.7L572.5,343.5L572.5,503.8L549.6,503.8L526.7,458L480.9,458L458,435.1L435.1,435.1L435.1,183.2Z" style="fill:rgb(47,79,192);stroke:rgb(47,79,192);stroke-width:1px;"/>
            </g>
            <path d="M435.1,870.2L503.8,938.9L526.7,984.7L595.4,984.7L618.3,1007.6L618.3,1122.1L526.7,1259.5L618.3,1259.5L641.2,1236.6L641.2,1167.9L664.1,1190.8L664.1,1259.5L618.3,1305.3L618.3,1442.7L664.1,1442.7L687,1488.5L526.7,1488.5L458,1442.7L435.1,1396.9L435.1,1259.5L503.8,1190.8L526.7,1122.1L503.8,1076.3L435.1,1076.3L435.1,870.2Z" style="fill:rgb(47,79,192);stroke:rgb(47,79,192);stroke-width:1px;"/>
            <path d="M732.8,1488.5L709.9,1442.7L664.1,1419.8L664.1,1351.1L687,1351.1L709.9,1328.2L709.9,1305.3L824.4,1282.4L847.3,1282.4L870.2,1213.7L938.9,1213.7L961.8,1259.5L984.7,1282.4L916,1305.3L870.2,1374L824.4,1419.8L824.4,1465.6L870.2,1488.5L732.8,1488.5Z" style="fill:rgb(47,79,192);stroke:rgb(47,79,192);stroke-width:1px;"/>
            <path d="M595.4,503.8L595.4,572.5L618.3,595.4L618.3,503.8L595.4,503.8Z" style="fill:rgb(47,79,192);stroke:rgb(47,79,192);stroke-width:1px;"/>
            <path d="M595.4,824.4L641.2,824.4L641.2,893.1L618.3,916L595.4,916L595.4,824.4Z" style="fill:rgb(47,79,192);stroke:rgb(47,79,192);stroke-width:1px;"/>
            <g transform="matrix(-1,0,0,1,2748,22.9)">
                <path d="M1694.6,1259.5L1671.7,1213.7L1694.6,1190.8L1694.6,1167.9L1717.5,1190.8L1717.5,1236.6L1694.6,1259.5Z" style="fill:rgb(47,79,192);stroke:rgb(47,79,192);stroke-width:1px;"/>
            </g>
        </g>
    </g>
</svg>
