<?xml version="1.0" encoding="UTF-8" standalone="no"?>
<!DOCTYPE svg PUBLIC "-//W3C//DTD SVG 1.1//EN" "http://www.w3.org/Graphics/SVG/1.1/DTD/svg11.dtd">
<svg width="100%" height="100%" viewBox="0 0 4634 3475" version="1.1" xmlns="http://www.w3.org/2000/svg" xmlns:xlink="http://www.w3.org/1999/xlink" xml:space="preserve" xmlns:serif="http://www.serif.com/" style="fill-rule:evenodd;clip-rule:evenodd;stroke-linecap:round;stroke-linejoin:round;stroke-miterlimit:1.5;">
    <g transform="matrix(2.08333,0,0,2.08333,0,0)">
        <g id="Layer2">
            <g transform="matrix(1,0,0,1,-11.2,2)">
                <path d="M1435.2,83.2L1414.4,83.2L1352,145.6L1268.8,187.2L1206.4,187.2L1185.6,208L1123.2,208L1123.2,187.2L1144,166.4L1185.6,145.6L1372.8,41.6L1476.8,41.6L1497.6,62.4L1456,62.4L1442.13,76.267L1456,104L1497.6,104L1518.4,124.8L1560,145.6L1571.2,167.991C1605.3,169.489 1705.6,166.4 1705.6,166.4L1726.4,187.2L1726.4,332.8L1736.8,343.2L1747.2,332.8L1830.4,228.8L1851.2,228.8L1872,249.6L1872,353.6L1851.2,478.4L1788.8,416L1736.8,364L1726.4,374.4C1726.4,374.4 1593.72,204.344 1565.31,171.709L1560.42,166.821C1560.12,166.691 1559.98,166.55 1560,166.4L1518.4,166.4L1476.8,145.6L1435.2,104L1435.2,83.2Z" style="fill:rgb(176,79,47);stroke:rgb(176,79,47);stroke-width:1px;"/>
            </g>
            <g transform="matrix(1,0,0,1,-11.2,2)">
                <path d="M540.8,686.4L436.8,769.6L374.4,832L374.4,873.6L457.6,956.8L540.8,686.4Z" style="fill:rgb(176,79,47);stroke:rgb(176,79,47);stroke-width:1px;"/>
            </g>
            <g transform="matrix(1,0,0,1,-11.2,2)">
                <path d="M457.6,998.4L374.4,1081.6L374.4,1123.2L457.6,1206.4L457.6,998.4Z" style="fill:rgb(176,79,47);stroke:rgb(176,79,47);stroke-width:1px;"/>
            </g>
            <g transform="matrix(1,0,0,1,-11.2,2)">
                <path d="M457.6,1227.2L374.4,1310.4L374.4,1352L478.4,1393.6L540.8,1414.4L457.6,1227.2Z" style="fill:rgb(176,79,47);stroke:rgb(176,79,47);stroke-width:1px;"/>
            </g>
            <g transform="matrix(1,0,0,1,-11.2,2)">
                <path d="M873.6,1622.4L977.6,1622.4L998.4,1601.6L998.4,1580.8L894.4,1580.8L873.6,1560L852.8,1560L873.6,1580.8L873.6,1622.4Z" style="fill:rgb(176,79,47);stroke:rgb(176,79,47);stroke-width:1px;"/>
            </g>
            <g transform="matrix(1,0,0,1,-11.2,2)">
                <path d="M873.6,1560L873.6,1497.6L977.6,1497.6L998.4,1518.4L998.4,1539.2L894.4,1539.2L873.6,1560Z" style="fill:rgb(176,79,47);stroke:rgb(176,79,47);stroke-width:1px;"/>
            </g>
            <g transform="matrix(1,0,0,1,-11.2,2)">
                <path d="M1518.4,1518.4L1456,1518.4L1393.6,1580.8L1372.8,1622.4L1518.4,1622.4L1518.4,1518.4Z" style="fill:rgb(176,79,47);stroke:rgb(176,79,47);stroke-width:1px;"/>
            </g>
            <g transform="matrix(1,0,0,1,-11.2,2)">
                <path d="M1435.2,1518.4L1414.4,1539.2L1393.6,1560L1372.8,1580.8L1352,1622.4L1248,1622.4L1248,1601.6L1268.8,1560L1331.2,1518.4L1435.2,1518.4Z" style="fill:rgb(176,79,47);stroke:rgb(176,79,47);stroke-width:1px;"/>
            </g>
        </g>
        <g id="Layer1">
            <g transform="matrix(1,0,0,1,-11.2,2)">
                <path d="M395.2,228.8L416,208L686.4,208L748.8,166.4L915.2,166.4L936,145.6L1019.2,145.6L1081.6,83.2L1164.8,41.6L1289.6,41.6L1310.4,62.4L1289.6,62.4L1185.6,124.8L1144,166.4L1123.2,187.2L1123.2,208L1185.6,208L1206.4,187.2L1268.8,187.2L1352,145.6L1414.4,83.2L1435.2,83.2L1456,124.8L1476.8,145.6L1518.4,145.6L1539.2,166.4L1560,166.4L1705.6,332.8L1851.2,478.4L1851.2,540.8L1809.6,540.8L1768,582.4L1768,624L1809.6,665.6L1851.2,665.6L1851.2,707.2L1747.2,811.2L1726.4,832L1726.4,790.4L1684.8,748.8L1643.2,748.8L1601.6,790.4L1601.6,832L1476.8,832L1476.8,790.4L1435.2,748.8L1393.6,748.8L1352,790.4L1352,832L1185.6,832L1185.6,790.4L1144,748.8L1102.4,748.8L1060.8,790.4L1060.8,832L894.4,832L894.4,790.4L852.8,748.8L811.2,748.8L769.6,790.4L769.6,834L790.4,852.8L707.2,956.8L707.2,915.2L665.6,873.6L624,873.6L582.4,915.2L582.4,956.8L624,998.4L665.6,998.4L707.2,956.8L707.2,1164.8L728,1206.4L748.8,1227.2L790.4,1227.2L769.6,1248L748.8,1268.8L603.2,1414.4L540.8,1414.4L457.6,1331.2L457.6,790.4L540.8,686.4L582.4,665.6L1539.2,665.6L1580.8,624L1622.4,624L1622.4,561.6L1601.6,540.8L1601.6,499.2L1497.6,395.2L1372.8,395.2L1331.2,416L1310.4,436.8L1248,436.8L1227.2,416L1185.6,395.2L1144,353.6L873.6,353.6L852.8,374.4L665.6,374.4L644.8,353.6L603.2,332.8L436.8,332.8L416,312L395.2,291.2L395.2,228.8Z" style="fill:rgb(47,111,127);stroke:rgb(47,111,127);stroke-width:1px;"/>
            </g>
            <g transform="matrix(1,0,0,1,-11.2,2)">
                <path d="M936,1289.6L811.2,1414.4L790.4,1456L790.4,1476.8L811.2,1497.6L873.6,1497.6L873.6,1580.8L603.2,1580.8L582.4,1601.6L582.4,1622.4L478.4,1622.4L478.4,1601.6L811.2,1289.6L832,1268.8L852.8,1289.6L936,1289.6Z" style="fill:rgb(47,111,127);stroke:rgb(47,111,127);stroke-width:1px;"/>
            </g>
            <g transform="matrix(1,0,0,1,-11.2,2)">
                <path d="M998.4,1289.6L852.8,1435.2L852.8,1456L1539.2,1456L1560,1476.8L1518.4,1518.4L1518.4,1580.8L1726.4,1580.8L1768,1560L1809.6,1518.4L1830.4,1476.8L1830.4,1227.2L1768,1164.8L1726.4,1164.8L1684.8,1206.4L1684.8,1248L1705.6,1268.8L1726.4,1268.8L1747.2,1248L1726.4,1227.2L1705.6,1227.2L1726.4,1206.4L1747.2,1206.4L1788.8,1248L1788.8,1289.6L1747.2,1331.2L1684.8,1331.2L1622.4,1268.8L1622.4,1164.8L1664,1123.2L1809.6,1123.2L1872,1185.6L1872,1372.8L1913.6,1310.4L1913.6,1040L1892.8,998.4L1830.4,936L1788.8,915.2L915.2,915.2L873.6,936L852.8,956.8L832,998.4L832,1123.2L852.8,1164.8L873.6,1185.6L915.2,1206.4L1435.2,1206.4L1456,1185.6L1456,1102.4L1435.2,1081.6L1206.4,1081.6L1144,1102.4L1102.4,1123.2L1060.8,1123.2L1040,1102.4L1040,998.4L1081.6,956.8L1476.8,956.8L1518.4,998.4L1518.4,1248L1476.8,1289.6L998.4,1289.6Z" style="fill:rgb(47,111,127);stroke:rgb(47,111,127);stroke-width:1px;"/>
            </g>
        </g>
        <g id="Layer6">
            <g transform="matrix(1,0,0,1,-11.2,2)">
                <path d="M1851.2,665.6L1851.2,540.8L1809.6,540.8L1768,582.4L1768,624L1809.6,665.6L1851.2,665.6Z" style="fill:rgb(15,63,95);stroke:rgb(15,63,95);stroke-width:1px;"/>
            </g>
            <g transform="matrix(1,0,0,1,-11.2,2)">
                <path d="M1601.6,832L1726.4,832L1726.4,790.4L1684.8,748.8L1643.2,748.8L1601.6,790.4L1601.6,832Z" style="fill:rgb(15,63,95);stroke:rgb(15,63,95);stroke-width:1px;"/>
            </g>
            <g transform="matrix(1,0,0,1,-11.2,2)">
                <path d="M1476.8,832L1352,832L1352,790.4L1393.6,748.8L1435.2,748.8L1476.8,790.4L1476.8,832Z" style="fill:rgb(15,63,95);stroke:rgb(15,63,95);stroke-width:1px;"/>
            </g>
            <g transform="matrix(1,0,0,1,-11.2,2)">
                <path d="M1060.8,832L1185.6,832L1185.6,790.4L1144,748.8L1102.4,748.8L1060.8,790.4L1060.8,832L894.4,832" style="fill:rgb(15,63,95);stroke:rgb(15,63,95);stroke-width:1px;"/>
            </g>
            <g transform="matrix(1,0,0,1,-11.2,2)">
                <path d="M894.4,832L894.4,790.4L852.8,748.8C852.8,748.8 812.215,748.927 811.2,748.8C810.185,748.673 769.6,790.4 769.6,790.4L769.6,832L790.4,852.8L894.4,832Z" style="fill:rgb(15,63,95);stroke:rgb(15,63,95);stroke-width:1px;"/>
            </g>
            <g transform="matrix(1,0,0,1,-11.2,2)">
                <path d="M707.2,956.8L707.2,915.2L665.6,873.6L624,873.6L582.4,915.2L582.4,956.8L624,998.4L665.6,998.4L707.2,956.8Z" style="fill:rgb(15,63,95);stroke:rgb(15,63,95);stroke-width:1px;"/>
            </g>
            <g transform="matrix(1,0,0,1,-11.2,2)">
                <path d="M707.2,1248L707.2,1206.4L665.6,1164.8L624,1164.8L582.4,1206.4L582.4,1248L624,1289.6L665.6,1289.6L707.2,1248Z" style="fill:rgb(15,63,95);stroke:rgb(15,63,95);stroke-width:1px;"/>
            </g>
            <g transform="matrix(1,0,0,1,-11.2,2)">
                <path d="M1622.4,499.2L1664,499.2L1705.6,457.6L1705.6,416L1664,374.4L1622.4,374.4L1580.8,416L1580.8,457.6L1622.4,499.2Z" style="fill:rgb(15,63,95);stroke:rgb(15,63,95);stroke-width:1px;"/>
            </g>
            <g transform="matrix(1,0,0,1,-11.2,2)">
                <path d="M1372.8,332.8L1414.4,332.8L1456,291.2L1456,249.6L1414.4,208L1372.8,208L1331.2,249.6L1331.2,291.2L1372.8,332.8Z" style="fill:rgb(15,63,95);stroke:rgb(15,63,95);stroke-width:1px;"/>
            </g>
            <g transform="matrix(1,0,0,1,-11.2,2)">
                <path d="M1123.2,1289.6L1123.2,1331.2L1164.8,1372.8L1206.4,1372.8L1248,1331.2L1248,1289.6L1123.2,1289.6Z" style="fill:rgb(15,63,95);stroke:rgb(15,63,95);stroke-width:1px;"/>
            </g>
            <g transform="matrix(1,0,0,1,-11.2,2)">
                <path d="M1372.8,1289.6L1372.8,1331.2L1414.4,1372.8L1456,1372.8L1497.6,1331.2L1497.6,1268.8L1372.8,1289.6Z" style="fill:rgb(15,63,95);stroke:rgb(15,63,95);stroke-width:1px;"/>
            </g>
            <g transform="matrix(1,0,0,1,-11.2,2)">
                <path d="M1664,1102.4L1622.4,1060.8L1622.4,1019.2L1664,977.6L1705.6,977.6L1747.2,1019.2L1747.2,1060.8L1705.6,1102.4L1664,1102.4Z" style="fill:rgb(15,63,95);stroke:rgb(15,63,95);stroke-width:1px;"/>
            </g>
            <g transform="matrix(1,0,0,1,-11.2,2)">
                <path d="M1289.6,1206.4L1289.6,1164.8L1331.2,1123.2L1372.8,1123.2L1414.4,1164.8L1414.4,1206.4L1289.6,1206.4Z" style="fill:rgb(15,63,95);stroke:rgb(15,63,95);stroke-width:1px;"/>
            </g>
            <g transform="matrix(1,0,0,1,-11.2,2)">
                <rect x="1331.2" y="915.2" width="124.8" height="41.6" style="fill:rgb(15,63,95);stroke:rgb(15,63,95);stroke-width:1px;"/>
            </g>
            <g transform="matrix(1,0,0,1,-11.2,2)">
                <path d="M1123.2,915.2L1123.2,956.8L1081.6,956.8L1040,998.4L998.4,956.8L998.4,915.2L1123.2,915.2Z" style="fill:rgb(15,63,95);stroke:rgb(15,63,95);stroke-width:1px;"/>
            </g>
            <g transform="matrix(1,0,0,1,-11.2,2)">
                <path d="M998.4,1206.4L998.4,1164.8L1040,1123.2L1081.6,1123.2L1123.2,1164.8L1123.2,1206.4L998.4,1206.4Z" style="fill:rgb(15,63,95);stroke:rgb(15,63,95);stroke-width:1px;"/>
            </g>
            <g transform="matrix(1,0,0,1,-11.2,2)">
                <path d="M832,998.4L873.6,998.4L915.2,1040L915.2,1081.6L873.6,1123.2L832,1123.2L832,998.4Z" style="fill:rgb(15,63,95);stroke:rgb(15,63,95);stroke-width:1px;"/>
            </g>
        </g>
        <g id="Layer3">
            <g transform="matrix(1,0,0,1,-11.2,2)">
                <path d="M1580.8,624L1622.4,624L1622.4,561.6L1601.6,540.8L1601.6,499.2L1497.6,395.2L1372.8,395.2L1331.2,416L1310.4,436.8L1248,436.8L1227.2,416L1185.6,395.2L1144,353.6L873.6,353.6L852.8,374.4L852.8,395.2L936,478.4L1019.2,478.4L1081.6,416L1081.6,395.2L1060.8,395.2L1040,416L1019.2,436.8L998.4,436.8L977.6,416L977.6,395.2L998.4,374.4L1081.6,374.4L1102.4,395.2L1102.4,436.8L1040,499.2L936,540.8L894.4,540.8L811.2,457.6L790.4,457.6L790.4,520L769.6,540.8L748.8,540.8L686.4,457.6L665.6,457.6L665.6,520L644.8,540.8L624,540.8L561.6,478.4L540.8,478.4L478.4,540.8L457.6,540.8L374.4,457.6L353.6,457.6L353.6,499.2L499.2,644.8L582.4,644.8L644.8,582.4L1019.2,582.4L1060.8,561.6L1123.2,499.2L1352,499.2L1414.4,436.8L1435.2,436.8L1539.2,540.8L1580.8,624Z" style="fill:rgb(192,160,111);stroke:rgb(192,160,111);stroke-width:1px;"/>
            </g>
            <g transform="matrix(1,0,0,1,-11.2,2)">
                <path d="M832,374.4L769.6,457.6L748.8,457.6L748.8,374.4L832,374.4Z" style="fill:rgb(192,160,111);stroke:rgb(192,160,111);stroke-width:1px;"/>
            </g>
            <g transform="matrix(1,0,0,1,-11.2,2)">
                <path d="M707.2,395.2L644.8,457.6L624,457.6L624,395.2L603.2,374.4L540.8,374.4L457.6,457.6L436.8,457.6L436.8,395.2L416,374.4L395.2,374.4L353.6,416L332.8,416L332.8,312L353.6,291.2L395.2,291.2L436.8,332.8L603.2,332.8L644.8,353.6L665.6,374.4L707.2,374.4L707.2,395.2Z" style="fill:rgb(192,160,111);stroke:rgb(192,160,111);stroke-width:1px;"/>
            </g>
            <g transform="matrix(1,0,0,1,-11.2,2)">
                <path d="M582.4,1622.4L582.4,1601.6L603.2,1580.8L873.6,1580.8L873.6,1622.4L582.4,1622.4Z" style="fill:rgb(192,160,111);stroke:rgb(192,160,111);stroke-width:1px;"/>
            </g>
            <g transform="matrix(1,0,0,1,-11.2,2)">
                <path d="M1518.4,1580.8L1518.4,1622.4L1747.2,1622.4L1788.8,1601.6L1851.2,1539.2L1872,1497.6L1872,1185.6L1809.6,1123.2L1664,1123.2L1622.4,1164.8L1622.4,1268.8L1684.8,1331.2L1747.2,1331.2L1788.8,1289.6L1788.8,1248L1747.2,1206.4L1726.4,1206.4L1705.6,1227.2L1726.4,1227.2L1747.2,1248L1726.4,1268.8L1705.6,1268.8L1684.8,1248L1684.8,1206.4L1726.4,1164.8L1768,1164.8L1830.4,1227.2L1830.4,1476.8L1809.6,1518.4L1768,1560L1726.4,1580.8L1518.4,1580.8Z" style="fill:rgb(192,160,111);stroke:rgb(192,160,111);stroke-width:1px;"/>
            </g>
            <g transform="matrix(1,0,0,1,-11.2,2)">
                <path d="M1435.2,1248L1476.8,1206.4L1476.8,1040L1435.2,998.4L1123.2,998.4L1081.6,1040L1081.6,1102.4L1102.4,1123.2L1060.8,1123.2L1040,1102.4L1040,998.4L1081.6,956.8L1476.8,956.8L1518.4,998.4L1518.4,1248L1476.8,1289.6L1164.8,1289.6L852.8,1289.6L748.8,1227.2L728,1206.4L707.2,1164.8L707.2,956.8L790.4,852.8L894.4,832L1726.4,832L1851.2,707.2L1851.2,790.4L1768,873.6L873.6,873.6L832,894.4L769.6,956.8L748.8,998.4L748.8,1123.2L769.6,1164.8L832,1227.2L873.6,1248L1435.2,1248Z" style="fill:rgb(192,160,111);stroke:rgb(192,160,111);stroke-width:1px;"/>
            </g>
        </g>
        <g transform="matrix(1,0,0,1.5,-11.2,-143.6)">
            <g id="Layer5">
                <path d="M811.2,332.8L790.4,312L811.2,291.2L852.8,291.2L873.6,312L852.8,332.8L811.2,332.8Z" style="fill:rgb(240,127,63);stroke:rgb(240,127,63);stroke-width:0.78px;"/>
            </g>
        </g>
        <g transform="matrix(1,0,0,1,-11.2,2)">
            <g id="Layer4">
                <path d="M748.8,332.8L769.6,312L790.4,291.2L832,270.4L873.6,249.6L915.2,228.8L956.8,208L998.4,208L977.6,228.8L956.8,249.6L936,270.4L894.4,291.2L832,291.2L811.2,312L790.4,332.8L748.8,332.8Z" style="stroke:black;stroke-width:1px;"/>
            </g>
        </g>
    </g>
</svg>
