<?xml version="1.0" encoding="UTF-8" standalone="no"?>
<!DOCTYPE svg PUBLIC "-//W3C//DTD SVG 1.1//EN" "http://www.w3.org/Graphics/SVG/1.1/DTD/svg11.dtd">
<svg width="100%" height="100%" viewBox="0 0 4634 3475" version="1.1" xmlns="http://www.w3.org/2000/svg" xmlns:xlink="http://www.w3.org/1999/xlink" xml:space="preserve" xmlns:serif="http://www.serif.com/" style="fill-rule:evenodd;clip-rule:evenodd;stroke-linecap:round;stroke-linejoin:round;stroke-miterlimit:1.5;">
    <g transform="matrix(2.08333,0,0,2.08333,0,0)">
        <g id="Layer8">
            <path d="M731.2,959.7L845.45,982.55L868.3,1005.4L868.3,1302.45L799.75,1302.45L776.9,1279.6L799.75,1279.6L822.6,1256.75L822.6,1211.05L799.75,1211.05L776.9,1188.2L799.75,1188.2L822.6,1165.35L822.6,1119.65L799.75,1119.65L776.9,1096.8L799.75,1096.8L822.6,1073.95L799.75,1051.1L754.05,1028.25L731.2,1051.1L731.2,959.7Z" style="fill:rgb(176,144,79);stroke:rgb(176,144,79);stroke-width:1px;"/>
            <path d="M731.2,936.85L776.9,891.15L776.9,799.75L731.2,708.35L639.8,662.65L662.65,731.2L639.8,822.6L639.8,868.3L685.5,936.85L731.2,936.85Z" style="fill:rgb(176,144,79);stroke:rgb(176,144,79);stroke-width:1px;"/>
            <path d="M1005.4,251.35L1142.5,137.1L1325.3,91.4L1530.95,91.4L1828,114.25L1782.3,159.95L1736.6,182.8L1782.3,205.65L1919.4,342.75L1873.7,434.15L1828,479.85L1873.7,525.55L1919.4,662.65L1896.55,731.2L1873.7,776.9L1896.55,822.6L1919.4,982.55L1599.5,717.49L1005.4,639.8L982.55,388.45L1005.4,251.35Z" style="fill:rgb(176,144,79);stroke:rgb(176,144,79);stroke-width:1px;"/>
            <path d="M731.2,1256.75L754.05,1256.75L776.9,1233.9L754.05,1233.9L731.2,1211.05L731.2,1256.75Z" style="fill:rgb(176,144,79);stroke:rgb(176,144,79);stroke-width:1px;"/>
            <g transform="matrix(1,0,0,1,0,-91.4)">
                <path d="M731.2,1256.75L754.05,1256.75L776.9,1233.9L754.05,1233.9L731.2,1211.05L731.2,1256.75Z" style="fill:rgb(176,144,79);stroke:rgb(176,144,79);stroke-width:1px;"/>
            </g>
        </g>
        <g id="Layer12">
            <path d="M1622.35,114.25L1530.95,137.1L1485.25,205.65L1530.95,274.2L1622.35,297.05L1462.4,297.05L1439.55,251.35L1393.85,251.35L1371,297.05L1256.75,319.9L1211.05,251.35L1165.35,251.35L1119.65,319.9L1005.4,388.45L914,388.45L914,342.75L1005.4,251.35L1142.5,114.25L1165.35,159.95L1211.05,159.95L1233.9,114.25L1371,114.25L1393.85,159.95L1439.55,159.95L1462.4,114.25L1622.35,114.25ZM1325.3,228.5L1348.15,205.65L1325.3,182.8L1279.6,182.8L1256.75,205.65L1279.6,228.5L1325.3,228.5Z" style="fill:rgb(127,95,63);stroke:rgb(127,95,63);stroke-width:1px;"/>
            <path d="M1256.75,479.85L1005.4,479.85L1005.4,434.15L1096.8,388.45L1188.2,342.75L1256.75,342.75L1279.6,388.45L1325.3,388.45L1348.15,342.75L1485.25,342.75L1508.1,388.45L1553.8,388.45L1576.65,342.75L1690.9,342.75L1622.35,365.6L1576.65,411.3L1622.35,457L1690.9,479.85L1576.65,479.85L1553.8,434.15L1508.1,434.15L1485.25,479.85L1348.15,479.85L1325.3,434.15L1279.6,434.15L1256.75,479.85ZM1439.55,434.15L1462.4,411.3L1439.55,388.45L1393.85,388.45L1371,411.3L1393.85,434.15L1439.55,434.15Z" style="fill:rgb(127,95,63);stroke:rgb(127,95,63);stroke-width:1px;"/>
            <path d="M1302.45,525.55L1325.3,571.25L1371,571.25L1393.85,525.55L1553.8,525.55L1576.65,571.25L1622.35,571.25L1645.2,525.55L1805.15,594.1L1690.9,594.1L1645.2,616.95L1668.05,685.5L1736.6,754.05L1645.2,731.2L1599.5,639.8L1553.8,639.8L1530.95,685.5L1393.85,662.65L1371,616.95L1325.3,616.95L1302.45,662.65L1028.25,662.65L1028.25,525.55L1302.45,525.55ZM1485.25,616.95L1508.1,594.1L1485.25,571.25L1439.55,571.25L1416.7,594.1L1439.55,616.95L1485.25,616.95Z" style="fill:rgb(127,95,63);stroke:rgb(127,95,63);stroke-width:1px;"/>
        </g>
        <g id="Layer11">
            <rect x="914" y="1485.25" width="91.4" height="137.1" style="fill:rgb(160,47,31);stroke:rgb(160,47,31);stroke-width:1px;"/>
            <g transform="matrix(1,0,0,1,137.1,0)">
                <rect x="914" y="1485.25" width="91.4" height="137.1" style="fill:rgb(160,47,31);stroke:rgb(160,47,31);stroke-width:1px;"/>
            </g>
            <g transform="matrix(1,0,0,1,274.2,0)">
                <path d="M914,1622.35L914,1485.25L1005.4,1485.25L1028.25,1622.35L914,1622.35Z" style="fill:rgb(160,47,31);stroke:rgb(160,47,31);stroke-width:1px;"/>
            </g>
            <g transform="matrix(1,0,0,1,411.3,0)">
                <path d="M959.7,1622.35L914,1576.65L914,1485.25L1005.4,1485.25L1051.1,1622.35L959.7,1622.35Z" style="fill:rgb(160,47,31);stroke:rgb(160,47,31);stroke-width:1px;"/>
            </g>
            <g transform="matrix(1,0,0,1,548.4,-45.7)">
                <path d="M959.7,1645.2L914,1576.65L914,1508.1L936.85,1485.25L1028.25,1485.25L1096.8,1553.8L1028.25,1645.2L959.7,1645.2Z" style="fill:rgb(160,47,31);stroke:rgb(160,47,31);stroke-width:1px;"/>
            </g>
            <g transform="matrix(1,0,0,1,731.2,-502.7)">
                <rect x="914" y="1485.25" width="137.1" height="137.1" style="fill:rgb(160,47,31);stroke:rgb(160,47,31);stroke-width:1px;"/>
            </g>
            <path d="M822.6,616.95L754.05,616.95L662.65,571.25L616.95,548.4L594.1,525.55L594.1,434.15L708.35,434.15L822.6,502.7L822.6,616.95Z" style="fill:rgb(160,47,31);stroke:rgb(160,47,31);stroke-width:1px;"/>
            <path d="M868.3,1485.25L822.6,1439.55L594.1,1439.55L594.1,1576.65L639.8,1576.65L799.75,1599.5L868.3,1576.65L868.3,1485.25Z" style="fill:rgb(160,47,31);stroke:rgb(160,47,31);stroke-width:1px;"/>
            <path d="M1645.2,1256.75L1645.2,1165.35L1782.3,1165.35L1782.3,1302.45L1690.9,1302.45L1645.2,1256.75Z" style="fill:rgb(160,47,31);stroke:rgb(160,47,31);stroke-width:1px;"/>
            <path d="M1805.15,297.05L1919.4,342.75L1233.9,342.75L1096.8,388.45L1005.4,434.15L1005.4,479.85L1690.9,479.85L1782.3,525.55L1919.4,662.65L1828,616.95L1736.6,571.25L1599.5,525.55L1096.8,525.55L1051.1,571.25L1051.1,616.95L1325.3,616.95L1508.1,662.65L1645.2,708.35L1736.6,754.05L1873.7,891.15L1919.4,982.55L1782.3,891.15L1645.2,799.75L1553.8,754.05L1325.3,708.35L1005.4,708.35L959.7,662.65L959.7,548.4L891.15,479.85L822.6,411.3L754.05,388.45L639.8,388.45L639.8,342.75L731.2,251.35L822.6,205.65L1073.95,114.25L1233.9,68.55L1736.6,68.55L1828,114.25L1508.1,114.25L1325.3,114.25L1142.5,159.95L1005.4,251.35L914,342.75L914,388.45L1005.4,342.75L1142.5,297.05L1805.15,297.05Z" style="fill:rgb(160,47,31);stroke:rgb(160,47,31);stroke-width:1px;"/>
            <path d="M776.9,799.75L868.3,708.35L982.55,708.35L1005.4,731.2L1005.4,776.9L845.45,936.85L754.05,936.85L731.2,959.7L731.2,1256.75L594.1,1211.05L457,1073.95L457,982.55L525.55,982.55L525.55,936.85L502.7,914L502.7,799.75L639.8,799.75L644.37,804.32L639.8,822.6L639.8,868.3L685.5,936.85L731.2,936.85L776.9,891.15L776.9,799.75Z" style="fill:rgb(160,47,31);stroke:rgb(160,47,31);stroke-width:1px;"/>
            <path d="M656.938,754.05L571.25,754.05L548.4,731.2L548.4,571.25L616.95,571.25L799.75,662.65L799.75,708.35L754.05,754.05L731.2,708.35L639.8,662.65L662.65,731.2L656.938,754.05Z" style="fill:rgb(160,47,31);stroke:rgb(160,47,31);stroke-width:1px;"/>
            <path d="M1782.3,1348.15L1622.35,1302.45L1576.65,1393.85L1599.5,1416.7L1736.6,1439.55L1782.3,1393.85L1782.3,1348.15Z" style="fill:rgb(160,47,31);stroke:rgb(160,47,31);stroke-width:1px;"/>
            <path d="M1599.5,1051.1L1599.5,891.15L1508.1,799.75L1279.6,799.75L1233.9,845.45L1233.9,936.85L1439.55,1142.5L1416.7,1142.5L1348.15,1096.8L1279.6,1073.95L1188.2,1051.1L1142.5,1073.95L1096.8,1119.65L1073.95,1211.05L1096.8,1245.81L1142.5,1256.75L1165.35,1279.6L1211.05,1279.6L1188.2,1188.2L1211.05,1165.35L1302.45,1188.2L1371,1211.05L1462.4,1256.75L1576.65,1256.75L1599.5,1233.9L1599.5,1211.05L1553.8,1165.35L1508.1,1119.65L1325.3,936.85L1325.3,868.3L1348.15,845.45L1439.55,845.45L1485.25,891.15L1485.25,914L1462.4,936.85L1416.7,891.15L1371,891.15L1371,936.85L1508.1,1073.95L1576.65,1073.95L1599.5,1051.1Z" style="fill:rgb(160,47,31);stroke:rgb(160,47,31);stroke-width:1px;"/>
        </g>
        <g id="Layer10">
            <path d="M685.5,1165.35L662.65,1165.35L594.1,1096.8L548.4,959.7L548.4,845.45L639.8,936.85L685.5,1028.25L685.5,1165.35Z" style="fill:rgb(15,31,31);stroke:rgb(15,31,31);stroke-width:1px;"/>
            <path d="M594.1,1302.45L685.5,1393.85L799.75,1393.85L822.6,1371L776.9,1348.15L731.2,1279.6L731.2,1211.05L594.1,1211.05L594.1,1302.45Z" style="fill:rgb(15,31,31);stroke:rgb(15,31,31);stroke-width:1px;"/>
            <path d="M868.3,1302.45L982.55,1302.45L1005.4,1279.6L1005.4,1256.75L914,1165.35L868.3,1165.35L868.3,1302.45Z" style="fill:rgb(15,31,31);stroke:rgb(15,31,31);stroke-width:1px;"/>
            <path d="M868.3,1119.65L936.85,1119.65L959.7,1096.8L959.7,1073.95L891.15,1005.4L868.3,1005.4L868.3,1119.65Z" style="fill:rgb(15,31,31);stroke:rgb(15,31,31);stroke-width:1px;"/>
            <path d="M457,1073.95L411.3,1028.25L365.6,936.85L365.6,845.45L388.45,891.15L457,959.7L502.7,982.55L457,1073.95Z" style="fill:rgb(15,31,31);stroke:rgb(15,31,31);stroke-width:1px;"/>
            <path d="M502.7,914L411.3,845.45L365.6,731.2L365.6,639.8L411.3,708.35L502.7,776.9L548.4,799.75L502.7,914Z" style="fill:rgb(15,31,31);stroke:rgb(15,31,31);stroke-width:1px;"/>
            <path d="M754.05,342.75L731.2,434.15L822.6,411.3L822.6,365.6L799.75,342.75L754.05,342.75Z" style="fill:rgb(15,31,31);stroke:rgb(15,31,31);stroke-width:1px;"/>
            <g transform="matrix(1,0,0,1,137.1,137.1)">
                <path d="M754.05,342.75L731.2,434.15L822.6,411.3L822.6,365.6L799.75,342.75L754.05,342.75Z" style="fill:rgb(15,31,31);stroke:rgb(15,31,31);stroke-width:1px;"/>
            </g>
            <path d="M388.45,342.75L365.6,251.35L365.6,205.65L411.3,159.95L502.7,114.25L731.2,114.25L776.9,159.95L776.9,205.65L731.2,228.5L662.65,297.05L594.1,297.05L502.7,251.35L457,251.35L411.3,297.05L388.45,342.75Z" style="fill:rgb(15,31,31);stroke:rgb(15,31,31);stroke-width:1px;"/>
            <path d="M548.4,662.65L502.7,639.8L457,594.1L434.15,548.4L434.15,502.7L479.85,548.4L548.4,571.25L548.4,662.65Z" style="fill:rgb(15,31,31);stroke:rgb(15,31,31);stroke-width:1px;"/>
            <g transform="matrix(1,0,0,1,45.7,-137.1)">
                <path d="M548.4,662.65L502.7,639.8L457,594.1L434.15,548.4L434.15,502.7L479.85,548.4L548.4,571.25L548.4,662.65Z" style="fill:rgb(15,31,31);stroke:rgb(15,31,31);stroke-width:1px;"/>
            </g>
            <path d="M776.9,114.25L799.75,91.4L868.3,68.55L982.55,68.55L1005.4,91.4L1005.4,114.25L914,159.95L868.3,159.95L822.6,114.25L776.9,114.25Z" style="fill:rgb(15,31,31);stroke:rgb(15,31,31);stroke-width:1px;"/>
            <path d="M594.1,1576.65L548.4,1576.65L457,1530.95L411.3,1485.25L388.45,1439.55L594.1,1439.55L594.1,1576.65Z" style="fill:rgb(15,31,31);stroke:rgb(15,31,31);stroke-width:1px;"/>
            <path d="M639.8,1622.35L662.65,1599.5L685.5,1553.8L708.35,1530.95L731.2,1530.95L754.05,1553.8L754.05,1599.5L731.2,1622.35L639.8,1622.35Z" style="fill:rgb(15,31,31);stroke:rgb(15,31,31);stroke-width:1px;"/>
            <g transform="matrix(1,0,0,1,114.25,2.27374e-13)">
                <path d="M639.8,1622.35L662.65,1599.5L685.5,1553.8L708.35,1530.95L731.2,1530.95L754.05,1553.8L754.05,1599.5L731.2,1622.35L639.8,1622.35Z" style="fill:rgb(15,31,31);stroke:rgb(15,31,31);stroke-width:1px;"/>
            </g>
            <path d="M1051.1,1256.75L1051.1,1325.3L1096.8,1393.85L1142.5,1439.55L1211.05,1439.55L1233.9,1416.7L1211.05,1416.7L1188.2,1393.85L1165.35,1348.15L1165.35,1279.6L1142.5,1256.75L1108.23,1233.9L1073.95,1211.05L1051.1,1256.75Z" style="fill:rgb(15,31,31);stroke:rgb(15,31,31);stroke-width:1px;"/>
            <path d="M1233.9,1325.3L1325.3,1325.3L1348.15,1302.45L1348.15,1279.6L1325.3,1302.45L1279.6,1279.6L1188.2,1188.2L1188.2,1279.6L1233.9,1325.3Z" style="fill:rgb(15,31,31);stroke:rgb(15,31,31);stroke-width:1px;"/>
            <path d="M1782.3,982.55L1873.7,1028.25L1919.4,1119.65L1850.85,1096.8L1828,1096.8L1782.3,1119.65L1782.3,982.55Z" style="fill:rgb(15,31,31);stroke:rgb(15,31,31);stroke-width:1px;"/>
            <g transform="matrix(1,0,0,1,0,182.8)">
                <path d="M1782.3,982.55L1873.7,1028.25L1919.4,1119.65L1850.85,1096.8L1828,1096.8L1782.3,1119.65L1782.3,982.55Z" style="fill:rgb(15,31,31);stroke:rgb(15,31,31);stroke-width:1px;"/>
            </g>
            <g transform="matrix(1,0,0,1,0,365.6)">
                <path d="M1782.3,982.55L1850.85,1005.4L1873.7,1028.25L1896.55,1119.65L1828,1073.95L1736.6,1073.95L1782.3,982.55Z" style="fill:rgb(15,31,31);stroke:rgb(15,31,31);stroke-width:1px;"/>
            </g>
            <path d="M1645.2,1508.1L1668.05,1530.95L1690.9,1576.65L1690.9,1622.35L1668.05,1599.5L1576.65,1599.5L1645.2,1508.1Z" style="fill:rgb(15,31,31);stroke:rgb(15,31,31);stroke-width:1px;"/>
            <g transform="matrix(1,0,0,1,-22.85,0)">
                <path d="M1165.35,1073.95L1188.2,1028.25L1256.75,982.55L1279.6,1051.1L1302.45,1073.95L1165.35,1073.95Z" style="fill:rgb(15,31,31);stroke:rgb(15,31,31);stroke-width:1px;"/>
            </g>
            <g transform="matrix(1,0,0,1,-22.85,114.25)">
                <path d="M1256.75,845.45L1233.9,822.6L1233.9,776.9L1096.8,776.9L1028.25,799.75L1005.4,822.6L1005.4,868.3L1051.1,845.45L1256.75,845.45Z" style="fill:rgb(15,31,31);stroke:rgb(15,31,31);stroke-width:1px;"/>
            </g>
            <path d="M1211.05,845.45L1279.6,776.9L1279.6,754.05L1096.8,754.05L1028.25,799.75L1005.4,822.6L1005.4,868.3L1051.1,845.45L1211.05,845.45Z" style="fill:rgb(15,31,31);stroke:rgb(15,31,31);stroke-width:1px;"/>
        </g>
        <g transform="matrix(1,0,0,1,-22.85,-22.85)">
            <g id="Layer9">
                <path d="M685.5,1165.35L662.65,1142.5L639.8,1096.8L662.65,1073.95L685.5,1073.95L685.5,1165.35Z" style="fill:rgb(95,144,144);stroke:rgb(95,144,144);stroke-width:1px;"/>
            </g>
        </g>
    </g>
</svg>
